<svg width="50" height="50" viewBox="0 0 50 50" fill="none" xmlns="http://www.w3.org/2000/svg">
<path d="M0 25V50H50V0H0V25ZM40.292 23C41.4896 23.2779 42.578 23.9042 43.42 24.8C43.8835 25.2826 44.2865 25.8199 44.62 26.4C44.62 26.464 42.46 27.924 41.144 28.74C41.096 28.772 40.904 28.564 40.692 28.248C40.4518 27.8335 40.1104 27.4866 39.6998 27.2396C39.2892 26.9927 38.8228 26.8539 38.344 26.836C36.828 26.732 35.852 27.528 35.86 28.836C35.8475 29.1617 35.922 29.4848 36.076 29.772C36.408 30.464 37.028 30.876 38.972 31.716C42.552 33.256 44.084 34.272 45.036 35.716C46.1 37.316 46.336 39.9 45.616 41.812C44.816 43.892 42.856 45.304 40.084 45.772C38.8179 45.917 37.5387 45.9036 36.276 45.732C34.3489 45.4194 32.5711 44.5018 31.2 43.112C30.74 42.604 29.844 41.28 29.9 41.184C30.046 41.0756 30.1998 40.978 30.36 40.892L32.2 39.836L33.636 39.004L33.936 39.448C34.4423 40.1722 35.0866 40.7894 35.832 41.264C37.432 42.104 39.616 41.988 40.696 41.016C41.0586 40.6598 41.2848 40.1878 41.3353 39.682C41.3857 39.1762 41.2571 38.6688 40.972 38.248C40.572 37.692 39.772 37.224 37.536 36.248C34.956 35.136 33.844 34.448 32.828 33.352C32.1937 32.6288 31.7254 31.7755 31.456 30.852C31.255 29.797 31.2253 28.7165 31.368 27.652C31.9 25.16 33.768 23.42 36.496 22.904C37.7594 22.7477 39.0391 22.7827 40.292 23.008V23ZM28.556 25.096V27.144H22.064V45.636H17.46V27.14H10.952V25.14C10.9345 24.4515 10.9532 23.7625 11.008 23.076C11.032 23.044 15.008 23.028 19.808 23.036H28.532L28.556 25.096Z" fill="#007ACC"/>
</svg>
