<svg width="50" height="50" viewBox="0 0 50 50" fill="none" xmlns="http://www.w3.org/2000/svg">
<g clip-path="url(#clip0_203_2)">
<path fill-rule="evenodd" clip-rule="evenodd" d="M43.8392 10.2031L28.0501 0.831214C27.1328 0.286575 26.0857 -0.000854492 25.0188 -0.000854492C23.952 -0.000854492 22.9049 0.286575 21.9876 0.831214L6.1954 10.2031C5.25683 10.7632 4.48018 11.5579 3.94185 12.509C3.40352 13.4602 3.12204 14.5352 3.12509 15.6281V34.3719C3.11929 35.4623 3.39675 36.5355 3.9303 37.4865C4.46385 38.4374 5.2352 39.2336 6.16884 39.7969L21.9579 49.1687C22.8752 49.7134 23.9223 50.0008 24.9892 50.0008C26.056 50.0008 27.1031 49.7134 28.0204 49.1687L43.8126 39.7969C44.7462 39.2336 45.5176 38.4374 46.0511 37.4865C46.5847 36.5355 46.8621 35.4623 46.8563 34.3719V15.6281C46.8651 14.5404 46.5919 13.469 46.0634 12.5183C45.5349 11.5675 44.7691 10.7699 43.8407 10.2031H43.8392ZM31.6095 39.4719V40.8156C31.6079 40.9844 31.5204 41.1391 31.3782 41.2297L30.5782 41.6875C30.4532 41.7531 30.347 41.6875 30.347 41.5109V40.1875C29.7822 40.465 29.1358 40.5278 28.5282 40.3641C28.4313 40.2984 28.3938 40.1734 28.4407 40.0516L28.7267 38.8328C28.7517 38.7297 28.8048 38.6375 28.886 38.5672C28.9088 38.5446 28.9352 38.5261 28.9642 38.5125C29.0043 38.4968 29.049 38.4968 29.0892 38.5125C29.6468 38.6623 30.241 38.5871 30.7438 38.3031C31.101 38.1287 31.4043 37.8608 31.6216 37.528C31.839 37.1951 31.9622 36.8097 31.9782 36.4125C31.9782 35.7281 31.6032 35.4438 30.697 35.4359C29.5501 35.4359 28.5095 35.2172 28.4626 33.5234C28.4892 32.0594 29.1688 30.6844 30.3157 29.7734V28.4109C30.3142 28.2547 30.4032 28.0984 30.547 27.9922L31.3188 27.5016C31.4438 27.4359 31.5501 27.5016 31.5501 27.6828V29.0453C32.0229 28.8304 32.5507 28.767 33.061 28.8641C33.1704 28.9266 33.2142 29.0641 33.161 29.1766L32.8907 30.3844C32.8673 30.4781 32.8204 30.5609 32.7532 30.6266C32.7313 30.65 32.7063 30.6703 32.6751 30.6891C32.6438 30.7078 32.597 30.7016 32.5595 30.6891C32.062 30.5801 31.5418 30.6651 31.1048 30.9266C30.786 31.064 30.513 31.2894 30.3177 31.5764C30.1223 31.8633 30.0127 32.1999 30.0017 32.5469C30.0017 33.1641 30.3267 33.3516 31.4188 33.375C32.8798 33.375 33.5079 34.0359 33.5251 35.5031C33.497 37.0391 32.7954 38.4844 31.6063 39.4563L31.6095 39.4719ZM39.8798 37.2062C39.8985 37.3219 39.8517 37.4406 39.7579 37.5094L35.7813 39.9344C35.7438 39.9656 35.6876 39.9703 35.6454 39.9453C35.6032 39.9203 35.5829 39.8672 35.5938 39.8203V38.7891C35.5985 38.6766 35.672 38.5766 35.7751 38.5359L39.7063 36.1812C39.7438 36.15 39.8001 36.1453 39.8423 36.1703C39.8845 36.1953 39.9048 36.2484 39.8938 36.2953V37.2047L39.8798 37.2062ZM42.6376 14.1563L27.697 23.3844C25.8329 24.4875 24.4626 25.6937 24.4626 27.9375V46.3406C24.4626 47.6844 25.0142 48.5281 25.8407 48.8094C25.5675 48.8604 25.2905 48.8881 25.0126 48.8922C24.1351 48.8902 23.2743 48.6522 22.5204 48.2031L6.73134 38.8328C5.15634 37.8906 4.22196 36.1953 4.22821 34.375V15.6281C4.21884 13.8031 5.15634 12.1094 6.73134 11.1625L22.5204 1.79059C24.0517 0.884339 25.9517 0.884339 27.4829 1.79059L43.272 11.1625C44.5735 11.95 45.4595 13.2719 45.697 14.7563C45.1845 13.6422 44.0048 13.35 42.6313 14.1391H42.636L42.6376 14.1563Z" fill="#1B1B1F"/>
</g>
<defs>
<clipPath id="clip0_203_2">
<rect width="50" height="50" fill="white"/>
</clipPath>
</defs>
</svg>
