<svg width="50" height="50" viewBox="0 0 50 50" fill="none" xmlns="http://www.w3.org/2000/svg">
<g clip-path="url(#clip0_203_5)">
<path d="M7.02915 45.2086L3 0H47.2884L43.2538 45.2015L25.1173 50.2298L7.02915 45.2086Z" fill="#1572B6"/>
<path d="M25.1436 46.3873L39.7999 42.324L43.2478 3.69727H25.1436V46.3873Z" fill="#33A9DC"/>
<path d="M25.1436 20.0758H32.4807L32.9866 14.398H25.1436V8.85303H25.1633H39.0465L38.9137 10.3402L37.5521 25.6208H25.1436V20.0758Z" fill="white"/>
<path d="M25.1776 34.4757L25.1525 34.4829L18.9778 32.8145L18.5831 28.3925H15.5819H13.0166L13.7934 37.0984L25.1507 40.2521L25.1776 40.245V34.4757Z" fill="#EBEBEB"/>
<path d="M32.0092 25.3857L31.3419 32.8108L25.1582 34.4791V40.2484L36.5245 37.0982L36.6088 36.1618L37.5721 25.3857H32.0092Z" fill="white"/>
<path d="M25.1638 8.85303V12.2973V14.3837V14.398H11.7883H11.7704L11.6591 13.1512L11.4062 10.3402L11.2734 8.85303H25.1638Z" fill="#EBEBEB"/>
<path d="M25.1444 20.0758V23.5201V25.6064V25.6208H19.0648H19.0469L18.9357 24.374L18.6845 21.5629L18.5518 20.0758H25.1444Z" fill="#EBEBEB"/>
</g>
<defs>
<clipPath id="clip0_203_5">
<rect width="50" height="50" fill="white"/>
</clipPath>
</defs>
</svg>
