<svg width="50" height="50" viewBox="0 0 50 50" fill="none" xmlns="http://www.w3.org/2000/svg">
<g clip-path="url(#clip0_241:12)">
<path d="M7.02915 45.2086L3 0H47.2884L43.2538 45.2015L25.1173 50.2298L7.02915 45.2086Z" fill="#1572B6"/>
<path d="M25.1436 46.3873L39.7999 42.324L43.2478 3.69728H25.1436V46.3873Z" fill="#33A9DC"/>
<path d="M25.1436 20.0758H32.4807L32.9866 14.398H25.1436V8.85301H25.1633H39.0465L38.9137 10.3402L37.5521 25.6208H25.1436V20.0758Z" fill="white"/>
<path d="M25.1776 34.4756L25.1525 34.4828L18.9778 32.8144L18.5831 28.3924H15.5819H13.0166L13.7934 37.0983L25.1507 40.252L25.1776 40.2449V34.4756Z" fill="#EBEBEB"/>
<path d="M32.0092 25.3858L31.3419 32.8109L25.1582 34.4792V40.2485L36.5245 37.0983L36.6088 36.1619L37.5721 25.3858H32.0092Z" fill="white"/>
<path d="M25.1638 8.85301V12.2973V14.3837V14.398H11.7883H11.7704L11.6591 13.1512L11.4062 10.3402L11.2734 8.85301H25.1638Z" fill="#EBEBEB"/>
<path d="M25.1444 20.0758V23.5201V25.6064V25.6208H19.0648H19.0469L18.9357 24.374L18.6845 21.5629L18.5518 20.0758H25.1444Z" fill="#EBEBEB"/>
</g>
<defs>
<clipPath id="clip0_241:12">
<rect width="50" height="50" fill="white"/>
</clipPath>
</defs>
</svg>
