<svg width="50" height="50" viewBox="0 0 50 50" fill="none" xmlns="http://www.w3.org/2000/svg">
<path d="M22.0859 6.25H28.2813V34.6391C25.6367 35.1818 22.945 35.4618 20.2453 35.475C12.6797 35.4672 8.74219 32.0875 8.74219 25.5969C8.74219 19.3469 12.9188 15.2844 19.3922 15.2844C20.3001 15.2667 21.2062 15.3718 22.0859 15.5969V6.25V6.25ZM22.0859 20.5344C21.4124 20.3122 20.7059 20.2065 19.9969 20.2219C16.8719 20.2219 15.0547 22.1328 15.0547 25.4813C15.0547 28.7422 16.7844 30.5422 19.9578 30.5422C20.67 30.542 21.3813 30.4898 22.0859 30.3859V20.5422V20.5344Z" fill="#44B78B"/>
<path d="M38.125 15.7172V29.9359C38.125 34.8312 37.7578 37.1844 36.6828 39.214C35.5857 41.2778 33.7917 42.8852 31.6203 43.75L25.8734 41.0422C27.9613 40.3272 29.7099 38.8637 30.7813 36.9344C31.6656 35.1828 31.9453 33.1531 31.9453 27.814V15.7172H38.125Z" fill="#44B78B"/>
<path d="M38.1328 6.28125H31.9391V12.575H38.1328V6.28125Z" fill="#44B78B"/>
</svg>
