<svg width="50" height="50" viewBox="0 0 50 50" fill="none" xmlns="http://www.w3.org/2000/svg">
<g clip-path="url(#clip0_203_18)">
<path d="M25 50C38.8072 50 50.0001 38.8071 50.0001 25C50.0001 11.1929 38.8072 0 25 0C11.1929 0 3.05176e-05 11.1929 3.05176e-05 25C3.05176e-05 38.8071 11.1929 50 25 50Z" fill="#3C5A9A"/>
<path d="M33.1289 7.67371H27.5908C24.3043 7.67371 20.6488 9.05596 20.6488 13.8199C20.6649 15.4798 20.6488 17.0696 20.6488 18.8587H16.8468V24.9089H20.7665V42.3263H27.9691V24.7939H32.723L33.1532 18.8417H27.845C27.845 18.8417 27.8569 16.1939 27.845 15.425C27.845 13.5424 29.8039 13.6502 29.9217 13.6502C30.8539 13.6502 32.6663 13.6529 33.1316 13.6502V7.67371H33.1289V7.67371Z" fill="white"/>
</g>
<defs>
<clipPath id="clip0_203_18">
<rect width="50" height="50" fill="white"/>
</clipPath>
</defs>
</svg>
