<svg width="50" height="50" viewBox="0 0 50 50" fill="none" xmlns="http://www.w3.org/2000/svg">
<path d="M16.6732 50C18.8833 50 21.0029 49.1221 22.5657 47.5593C24.1285 45.9965 25.0065 43.8768 25.0065 41.6667V33.3334H16.6732C14.463 33.3334 12.3434 34.2113 10.7806 35.7741C9.21782 37.337 8.33984 39.4566 8.33984 41.6667C8.33984 43.8768 9.21782 45.9965 10.7806 47.5593C12.3434 49.1221 14.463 50 16.6732 50V50Z" fill="#0ACF83"/>
<path d="M8.33984 25C8.33984 22.7898 9.21782 20.6702 10.7806 19.1074C12.3434 17.5446 14.463 16.6666 16.6732 16.6666H25.0065V33.3333H16.6732C14.463 33.3333 12.3434 32.4553 10.7806 30.8925C9.21782 29.3297 8.33984 27.2101 8.33984 25V25Z" fill="#A259FF"/>
<path d="M8.33984 8.33333C8.33984 6.12432 9.21692 4.00569 10.7783 2.44308C12.3397 0.880461 14.4577 0.00172579 16.6667 0L25 0V16.6667H16.6732C14.463 16.6667 12.3434 15.7887 10.7806 14.2259C9.21782 12.6631 8.33984 10.5435 8.33984 8.33333V8.33333Z" fill="#F24E1E"/>
<path d="M25.0065 0H33.3398C35.55 0 37.6696 0.877974 39.2324 2.44078C40.7952 4.00358 41.6732 6.1232 41.6732 8.33333C41.6732 10.5435 40.7952 12.6631 39.2324 14.2259C37.6696 15.7887 35.55 16.6667 33.3398 16.6667H25.0065V0Z" fill="#FF7262"/>
<path d="M41.6732 25C41.6732 27.2101 40.7952 29.3297 39.2324 30.8925C37.6696 32.4553 35.55 33.3333 33.3398 33.3333C31.1297 33.3333 29.0101 32.4553 27.4473 30.8925C25.8845 29.3297 25.0065 27.2101 25.0065 25C25.0065 22.7898 25.8845 20.6702 27.4473 19.1074C29.0101 17.5446 31.1297 16.6666 33.3398 16.6666C35.55 16.6666 37.6696 17.5446 39.2324 19.1074C40.7952 20.6702 41.6732 22.7898 41.6732 25V25Z" fill="#1ABCFE"/>
</svg>
