<svg width="50" height="50" viewBox="0 0 50 50" fill="none" xmlns="http://www.w3.org/2000/svg">
<g clip-path="url(#clip0_203_27)">
<path d="M30.6563 18.0594L25.6516 22.7156L21.0078 13.3484L23.4109 7.9609C24.0359 6.86715 25.0109 6.87965 25.6203 7.9609L30.6563 18.0594Z" fill="#FFA000"/>
<path d="M21.0076 13.3484L25.6514 22.7156L6.94824 40.1141L21.0076 13.3484Z" fill="#F57F17"/>
<path d="M36.1295 10.9422C37.0232 10.0828 37.9482 10.3766 38.1842 11.5938L43.0529 39.8828L26.9154 49.5703C26.3529 49.8828 24.8529 50.0172 24.8529 50.0172C24.8529 50.0172 23.4873 49.8547 22.967 49.5484L6.94824 40.1141L36.1295 10.9422Z" fill="#FFCA28"/>
<path d="M21.008 13.3484L6.9502 40.1141L13.2111 0.996828C13.4424 -0.221921 14.1361 -0.339109 14.7549 0.735891L21.008 13.3484Z" fill="#FFA000"/>
</g>
<defs>
<clipPath id="clip0_203_27">
<rect width="50" height="50" fill="white"/>
</clipPath>
</defs>
</svg>
