<svg width="50" height="50" viewBox="0 0 50 50" fill="none" xmlns="http://www.w3.org/2000/svg">
<path d="M49.0538 22.7726L27.2265 0.945262C26.9279 0.645647 26.5731 0.407917 26.1825 0.245708C25.7918 0.0834986 25.373 0 24.95 0C24.527 0 24.1082 0.0834986 23.7175 0.245708C23.3269 0.407917 22.9721 0.645647 22.6735 0.945262L18.1402 5.47857L23.8894 11.2278C24.5674 10.9971 25.2965 10.9614 25.9938 11.1249C26.691 11.2884 27.3282 11.6445 27.833 12.1526C28.3377 12.6606 28.6895 13.3002 28.8484 13.9985C29.0073 14.6968 28.9668 15.4257 28.7316 16.1021L34.2666 21.6371C35.0939 21.3528 35.9937 21.3607 36.8159 21.6593C37.6382 21.958 38.3333 22.5294 38.7854 23.2783C39.2375 24.0272 39.4193 24.9084 39.3006 25.7751C39.1818 26.6418 38.7697 27.4417 38.1328 28.0414C37.4959 28.6411 36.6728 29.0045 35.8005 29.0709C34.9282 29.1374 34.0595 28.903 33.3391 28.4067C32.6187 27.9104 32.0901 27.1823 31.8414 26.3436C31.5927 25.5049 31.6389 24.6063 31.9723 23.7975L26.8033 18.6286V32.2285C27.5863 32.6164 28.2128 33.2609 28.5783 34.0546C28.9439 34.8483 29.0265 35.7433 28.8123 36.5905C28.5982 37.4377 28.1003 38.186 27.4015 38.7107C26.7027 39.2354 25.8452 39.5048 24.9719 39.4741C24.0986 39.4434 23.2622 39.1144 22.602 38.542C21.9417 37.9695 21.4976 37.1882 21.3434 36.328C21.1893 35.4679 21.3345 34.5809 21.7549 33.8148C22.1753 33.0487 22.8454 32.4498 23.6538 32.1178V18.3929C23.1861 18.201 22.7611 17.9185 22.4031 17.5617C22.0451 17.2048 21.7613 16.7807 21.5679 16.3137C21.3746 15.8467 21.2756 15.346 21.2766 14.8405C21.2775 14.3351 21.3785 13.8348 21.5737 13.3686L15.9137 7.70505L0.946159 22.678C0.646274 22.9766 0.408319 23.3315 0.245951 23.7223C0.0835829 24.1131 0 24.5322 0 24.9554C0 25.3786 0.0835829 25.7976 0.245951 26.1884C0.408319 26.5792 0.646274 26.9341 0.946159 27.2327L22.7735 49.0529C23.0721 49.3526 23.4269 49.5903 23.8175 49.7525C24.2082 49.9147 24.627 49.9982 25.05 49.9982C25.473 49.9982 25.8918 49.9147 26.2825 49.7525C26.6731 49.5903 27.0279 49.3526 27.3265 49.0529L49.0538 27.3202C49.3537 27.0216 49.5917 26.6667 49.754 26.2759C49.9164 25.8851 50 25.466 50 25.0428C50 24.6196 49.9164 24.2006 49.754 23.8098C49.5917 23.419 49.3537 23.0641 49.0538 22.7655" fill="#DD4C35"/>
<path d="M18.1415 5.47949L23.8907 11.2287C24.5687 10.9979 25.2978 10.9623 25.995 11.1258C26.6923 11.2893 27.3295 11.6454 27.8343 12.1534C28.339 12.6615 28.6908 13.3011 28.8497 13.9994C29.0086 14.6977 28.9681 15.4266 28.7329 16.103L34.2679 21.6379C35.0952 21.3537 35.995 21.3616 36.8172 21.6602C37.6395 21.9589 38.3346 22.5302 38.7867 23.2792C39.2388 24.0281 39.4206 24.9093 39.3019 25.776C39.1831 26.6427 38.771 27.4426 38.1341 28.0423C37.4972 28.642 36.674 29.0054 35.8018 29.0718C34.9295 29.1383 34.0608 28.9039 33.3404 28.4076C32.62 27.9113 32.0914 27.1832 31.8427 26.3445C31.594 25.5057 31.6401 24.6071 31.9736 23.7984L26.8046 18.6294V32.2293C27.5876 32.6173 28.2141 33.2618 28.5796 34.0555C28.9452 34.8492 29.0278 35.7442 28.8136 36.5914C28.5995 37.4386 28.1016 38.1869 27.4028 38.7116C26.704 39.2362 25.8465 39.5057 24.9732 39.475C24.0999 39.4443 23.2635 39.1153 22.6033 38.5429C21.943 37.9704 21.4989 37.189 21.3447 36.3289C21.1906 35.4688 21.3358 34.5818 21.7562 33.8157C22.1766 33.0496 22.8467 32.4507 23.655 32.1187V18.3937C23.1874 18.2019 22.7624 17.9194 22.4044 17.5626C22.0464 17.2057 21.7626 16.7816 21.5692 16.3145C21.3759 15.8475 21.2769 15.3469 21.2778 14.8414C21.2788 14.336 21.3798 13.8357 21.575 13.3694L15.915 7.70597" fill="white"/>
</svg>
