<svg width="50" height="50" viewBox="0 0 50 50" fill="none" xmlns="http://www.w3.org/2000/svg">
<path d="M46.6461 13.0628C44.4105 9.2324 41.3782 6.1999 37.5481 3.96457C33.7176 1.72913 29.5357 0.611694 24.9996 0.611694C20.4641 0.611694 16.2808 1.72947 12.4511 3.96457C8.6207 6.19978 5.58843 9.2324 3.35287 13.0628C1.11766 16.893 0 21.0757 0 25.6106C0 31.0581 1.58933 35.9567 4.76879 40.3075C7.94791 44.6587 12.0549 47.6695 17.0893 49.3404C17.6753 49.4491 18.1092 49.3726 18.3912 49.1128C18.6734 48.8526 18.8143 48.5268 18.8143 48.1366C18.8143 48.0715 18.8087 47.4858 18.7979 46.3789C18.7867 45.2719 18.7815 44.3063 18.7815 43.4823L18.0328 43.6118C17.5554 43.6993 16.9532 43.7363 16.2261 43.7258C15.4994 43.7157 14.745 43.6395 13.9639 43.4979C13.1824 43.3576 12.4556 43.0321 11.7828 42.5221C11.1104 42.0121 10.633 41.3446 10.3508 40.5205L10.0253 39.7714C9.80837 39.2727 9.46679 38.7187 9.00013 38.1115C8.53348 37.5037 8.06158 37.0917 7.58422 36.8747L7.3563 36.7115C7.20444 36.6031 7.06352 36.4723 6.9332 36.3206C6.803 36.1688 6.70552 36.017 6.64042 35.8649C6.57521 35.7127 6.62925 35.5878 6.80312 35.4899C6.97698 35.392 7.2912 35.3444 7.74714 35.3444L8.39792 35.4417C8.83197 35.5287 9.36885 35.7885 10.0093 36.2228C10.6493 36.6567 11.1755 37.2208 11.5879 37.9149C12.0872 38.8049 12.6889 39.4831 13.3945 39.9497C14.0996 40.4164 14.8104 40.6493 15.5264 40.6493C16.2424 40.6493 16.8608 40.595 17.3819 40.4871C17.9023 40.3785 18.3906 40.2154 18.8466 39.9985C19.0419 38.544 19.5736 37.4265 20.4414 36.6454C19.2046 36.5154 18.0926 36.3197 17.1049 36.0594C16.1178 35.7988 15.0977 35.3758 14.0454 34.7893C12.9925 34.2036 12.1191 33.4763 11.4248 32.6087C10.7305 31.7406 10.1607 30.6009 9.71613 29.1907C9.27137 27.7799 9.04893 26.1525 9.04893 24.308C9.04893 21.6818 9.9063 19.4469 11.6207 17.6022C10.8176 15.6277 10.8934 13.4143 11.8484 10.9621C12.4777 10.7665 13.411 10.9133 14.6478 11.4014C15.8849 11.8897 16.7906 12.308 17.3659 12.6548C17.9412 13.0015 18.4022 13.2953 18.7494 13.5336C20.768 12.9696 22.8512 12.6875 24.9994 12.6875C27.1476 12.6875 29.2312 12.9696 31.2499 13.5336L32.4868 12.7528C33.3326 12.2317 34.3315 11.7542 35.481 11.3202C36.6311 10.8864 37.5106 10.7669 38.1185 10.9624C39.0947 13.4147 39.1817 15.628 38.3784 17.6025C40.0927 19.4472 40.9504 21.6827 40.9504 24.3084C40.9504 26.1529 40.7271 27.7854 40.2831 29.207C39.8384 30.6289 39.2637 31.7674 38.5586 32.625C37.8528 33.4825 36.9737 34.2041 35.9214 34.7896C34.8689 35.3757 33.8484 35.7987 32.8613 36.0593C31.8737 36.3199 30.7618 36.5158 29.525 36.646C30.653 37.6222 31.2171 39.163 31.2171 41.2679V48.1357C31.2171 48.5259 31.3528 48.8516 31.6244 49.1119C31.8956 49.3717 32.324 49.4482 32.91 49.3393C37.9451 47.6687 42.0521 44.6578 45.2311 40.3066C48.4098 35.9558 49.9997 31.0572 49.9997 25.6097C49.9985 21.0753 48.8803 16.893 46.6461 13.0628Z" fill="black"/>
</svg>
