<svg width="50" height="50" viewBox="0 0 50 50" fill="none" xmlns="http://www.w3.org/2000/svg">
<path d="M3.40918 44.5028H11.3637V25.1845L0 16.6617V41.0938C0 42.9773 1.52559 44.503 3.40918 44.503V44.5028Z" fill="#4285F4"/>
<path d="M38.6363 44.5027H46.5909C48.4744 44.5027 49.9999 42.9771 49.9999 41.0936V16.6617L38.6363 25.1845V44.5027Z" fill="#34A853"/>
<path d="M38.6363 10.4118V25.1844L49.9999 16.6617V12.1163C49.9999 7.90328 45.1904 5.49704 41.8181 8.02544L38.6363 10.4118Z" fill="#FBBC04"/>
<path fill-rule="evenodd" clip-rule="evenodd" d="M11.3637 25.1845V10.4117L25 20.6391L38.6363 10.4117V25.1845L25 35.4117L11.3637 25.1845Z" fill="#EA4335"/>
<path d="M0 12.1163V16.6617L11.3637 25.1844V10.4118L8.18184 8.02545C4.80957 5.49704 0 7.90328 0 12.1162V12.1163Z" fill="#C5221F"/>
</svg>
