<svg width="50" height="50" viewBox="0 0 50 50" fill="none" xmlns="http://www.w3.org/2000/svg">
<g clip-path="url(#clip0_203_62)">
<path d="M7.03068 45.2057L3 0H47.2891L43.253 45.1985L25.1176 50.2266L7.03068 45.2057Z" fill="#E44F26"/>
<path d="M25.1445 46.3842L39.7999 42.3213L43.2476 3.69702H25.1445V46.3842Z" fill="#F1662A"/>
<path d="M25.1442 20.4619H17.8075L17.3017 14.7845H25.1442V9.23987H25.1245H11.2422L11.3749 10.7288L12.7364 26.0066H25.1442V20.4619Z" fill="#EBEBEB"/>
<path d="M25.1436 34.8608L25.1185 34.868L18.9442 33.2016L18.5496 28.7798H15.5485H12.9834L13.7601 37.4834L25.1185 40.6369L25.1436 40.6297V34.8608Z" fill="#EBEBEB"/>
<path d="M25.125 20.4619V26.0066H31.9522L31.31 33.198L25.125 34.8662V40.6351L36.4923 37.4834L36.5749 36.547L37.8772 21.9508L38.0135 20.4619H36.5193H25.125Z" fill="white"/>
<path d="M25.125 9.23987V12.684V14.772V14.7845H38.4996H38.5176L38.6288 13.5396L38.8817 10.7288L39.0144 9.23987H25.125Z" fill="white"/>
</g>
<defs>
<clipPath id="clip0_203_62">
<rect width="50" height="50" fill="white"/>
</clipPath>
</defs>
</svg>
