<svg width="50" height="50" viewBox="0 0 50 50" fill="none" xmlns="http://www.w3.org/2000/svg">
<path d="M49.9854 0H0.0146484C0.00655833 0 0 0.00655833 0 0.0146484V49.9854C0 49.9934 0.00655833 50 0.0146484 50H49.9854C49.9934 50 50 49.9934 50 49.9854V0.0146484C50 0.00655833 49.9934 0 49.9854 0Z" fill="#F7DF1E"/>
<path d="M31.6406 36.1328C32.6172 37.793 33.9844 38.9648 36.2305 38.9648C38.1836 38.9648 39.4531 37.9883 39.4531 36.6211C39.4531 35.0586 38.1836 34.4727 36.0352 33.4961L34.8633 33.0078C31.4453 31.543 29.1992 29.7852 29.1992 25.9766C29.1992 22.4609 31.8359 19.7266 36.0352 19.7266C39.0625 19.7266 41.2109 20.8008 42.6758 23.5352L39.0625 25.8789C38.2812 24.4141 37.4023 23.8281 36.0352 23.8281C34.668 23.8281 33.7891 24.707 33.7891 25.8789C33.7891 27.2461 34.668 27.832 36.7188 28.7109L37.8906 29.1992C41.8945 30.957 44.1406 32.6172 44.1406 36.6211C44.1406 40.8203 40.8203 43.1641 36.3281 43.1641C31.9336 43.1641 29.1016 41.1133 27.7344 38.3789L31.6406 36.1328ZM15.0391 36.5234C15.8203 37.793 16.4062 38.9648 18.0664 38.9648C19.6289 38.9648 20.6055 38.3789 20.6055 36.0352V19.8242H25.293V35.8398C25.293 40.7227 22.4609 42.8711 18.2617 42.8711C14.4531 42.8711 12.3047 40.918 11.2305 38.5742L15.0391 36.5234Z" fill="black"/>
</svg>
