<svg width="50" height="50" viewBox="0 0 50 50" fill="none" xmlns="http://www.w3.org/2000/svg">
<path fill-rule="evenodd" clip-rule="evenodd" d="M0 13H50V38H0V13Z" fill="black"/>
<path fill-rule="evenodd" clip-rule="evenodd" d="M13.476 22.588L13.464 19.226H11.588L11.6 22.588L12.538 23.876L13.476 22.588ZM11.6 28.35V31.724H13.476V28.35L12.538 27.062L11.6 28.35Z" fill="white"/>
<path fill-rule="evenodd" clip-rule="evenodd" d="M13.476 28.35L15.452 31.076L16.964 29.976L14.988 27.25L13.476 26.762V28.35ZM11.6 22.5881L9.61198 19.8621L8.09998 20.9621L10.076 23.6861L11.6 24.174V22.5881Z" fill="#00F2E6"/>
<path fill-rule="evenodd" clip-rule="evenodd" d="M10.076 23.688L6.87599 22.65L6.29999 24.424L9.49999 25.4741L11.012 24.974L10.076 23.688ZM14.05 25.9621L14.988 27.2501L18.188 28.2881L18.764 26.5141L15.564 25.4761L14.05 25.9621Z" fill="#00B9F1"/>
<path fill-rule="evenodd" clip-rule="evenodd" d="M15.562 25.476L18.762 24.426L18.186 22.652L14.986 23.69L14.048 24.978L15.562 25.476ZM9.49999 25.476L6.29999 26.514L6.87599 28.288L10.076 27.25L11.014 25.962L9.49999 25.476Z" fill="#D63AFF"/>
<path fill-rule="evenodd" clip-rule="evenodd" d="M10.076 27.25L8.09998 29.976L9.61198 31.076L11.6 28.35V26.762L10.076 27.25ZM14.988 23.6881L16.964 20.9621L15.452 19.8621L13.476 22.5861V24.174L14.988 23.6881Z" fill="#FB015B"/>
<path fill-rule="evenodd" clip-rule="evenodd" d="M25.762 22.412V26.786C25.762 27.748 24.974 28.536 24.012 28.536V27.66C24.5 27.66 24.888 27.272 24.888 26.784V22.412H25.762ZM41.738 23.288H43.712V22.414H38.9V23.288H40.862V28.538H41.738V23.288ZM36.262 22.412V26.786C36.262 27.274 35.874 27.662 35.386 27.662C34.898 27.662 34.51 27.274 34.51 26.786V24.162C34.51 23.2 33.722 22.412 32.76 22.412C31.798 22.412 31.01 23.2 31.01 24.162V26.788C31.01 27.276 30.622 27.664 30.134 27.664C29.646 27.664 29.258 27.276 29.258 26.788V22.412H28.382V26.786C28.382 27.748 29.17 28.536 30.132 28.536C31.094 28.536 31.882 27.748 31.882 26.786V24.162C31.882 23.674 32.27 23.286 32.758 23.286C33.246 23.286 33.634 23.674 33.634 24.162V26.788C33.634 27.75 34.422 28.538 35.384 28.538C36.346 28.538 37.134 27.75 37.134 26.788V22.412H36.262Z" fill="white"/>
</svg>
