<svg width="50" height="51" viewBox="0 0 50 51" fill="none" xmlns="http://www.w3.org/2000/svg">
<g clip-path="url(#clip0_203_82)">
<path d="M0 3.68198C0 1.70503 1.65508 0.100342 3.69531 0.100342H46.3047C48.3457 0.100342 50 1.70503 50 3.68198V46.5193C50 48.4968 48.3457 50.1003 46.3047 50.1003H3.69531C1.65527 50.1003 0 48.497 0 46.5199V3.6814V3.68198Z" fill="#006699"/>
<path d="M15.1945 41.9437V19.4336H7.7125V41.9437H15.1953H15.1945ZM11.4551 16.3607C14.0637 16.3607 15.6877 14.6322 15.6877 12.472C15.6389 10.2627 14.0637 8.5824 11.5047 8.5824C8.94395 8.5824 7.27148 10.2627 7.27148 12.4719C7.27148 14.632 8.89492 16.3605 11.4061 16.3605H11.4545L11.4551 16.3607ZM19.3359 41.9437H26.8174V29.3744C26.8174 28.7025 26.8662 28.0289 27.0639 27.549C27.6045 26.2043 28.8356 24.8123 30.903 24.8123C33.6096 24.8123 34.693 26.8763 34.693 29.9027V41.9437H42.1743V29.0371C42.1743 22.1232 38.4836 18.9058 33.5612 18.9058C29.5254 18.9058 27.7529 21.1615 26.7682 22.6978H26.818V19.4344H19.3363C19.434 21.5461 19.3358 41.9445 19.3358 41.9445L19.3359 41.9437Z" fill="white"/>
</g>
<defs>
<clipPath id="clip0_203_82">
<rect width="50" height="50.2008" fill="white"/>
</clipPath>
</defs>
</svg>
