<svg width="50" height="50" viewBox="0 0 50 50" fill="none" xmlns="http://www.w3.org/2000/svg">
<path d="M46.5568 41H3.59277C1.64668 41 0 39.3449 0 37.3884V13.6116C0 11.6553 1.64668 10 3.59277 10H46.4072C48.3533 10 50 11.6553 50 13.6116V37.3884C50 39.3447 48.5029 41 46.5568 41V41ZM3.59277 12.4077C2.99395 12.4077 2.39512 13.0096 2.39512 13.6116V37.3884C2.39512 38.1407 2.99395 38.5923 3.59277 38.5923H46.4072C47.1557 38.5923 47.6049 37.9904 47.6049 37.3884V13.6116C47.6049 12.8593 47.0061 12.4077 46.4072 12.4077H3.59277ZM7.18555 33.7768V17.2232H11.976L16.7664 23.2429L21.5568 17.2232H26.3473V33.7768H21.5568V24.2961L16.7664 30.3157L11.976 24.2961V33.7768H7.18555V33.7768ZM37.2754 33.7768L30.0898 25.801H34.8803V17.2232H39.6707V25.6506H44.4611L37.2756 33.7768H37.2754Z" fill="black"/>
</svg>
