<svg width="50" height="50" viewBox="0 0 50 50" fill="none" xmlns="http://www.w3.org/2000/svg">
<path fill-rule="evenodd" clip-rule="evenodd" d="M34.3893 16.7234C35.0162 18.5371 35.4678 20.3887 35.6162 22.3078C35.8006 24.6887 35.7162 27.0527 35.2143 29.3945C35.2006 29.459 35.1717 29.5195 35.1502 29.582C34.9928 29.5824 34.8322 29.5629 34.6783 29.5867C33.3779 29.791 32.0787 30.0027 30.7795 30.2133C29.4365 30.4309 28.0916 30.6398 26.751 30.8723C26.276 30.9543 25.6881 30.8563 25.4963 31.5133C25.4908 31.5313 25.4361 31.5344 25.4045 31.5445L25.4693 27.6184C25.4471 24.4605 25.4252 21.3027 25.4033 18.1449L26.0291 18.0375C27.0525 17.8699 28.076 17.7 29.1002 17.5371C30.3225 17.343 31.5459 17.1543 32.7689 16.9648C33.3084 16.8809 33.8486 16.8039 34.3893 16.7234Z" fill="#439934"/>
<path fill-rule="evenodd" clip-rule="evenodd" d="M24.1131 42.9898C23.4529 42.4223 22.7697 41.8797 22.1369 41.2828C18.7318 38.0711 16.2412 34.291 15.0146 29.7336C14.6767 28.4793 14.4514 27.2047 14.3791 25.9086C14.3283 25.0016 14.2549 24.0863 14.3189 23.184C14.4896 20.784 14.8365 18.407 15.5404 16.0953L15.5791 16.0414C15.6475 16.1324 15.7459 16.2129 15.7807 16.3156C16.4678 18.3391 17.1498 20.3641 17.8283 22.3902C19.9603 28.7574 22.0896 35.1262 24.2252 41.4918C24.267 41.616 24.3752 41.718 24.4529 41.8301L24.1131 42.9898Z" fill="#45A538"/>
<path fill-rule="evenodd" clip-rule="evenodd" d="M34.3895 16.7234C33.8488 16.8039 33.3082 16.8809 32.7688 16.9641C31.5457 17.1535 30.3223 17.3422 29.1 17.5363C28.0758 17.6992 27.0524 17.8691 26.0289 18.0367L25.4031 18.1441L25.3985 17.7359C25.3777 17.4004 25.3422 17.0652 25.3383 16.7297C25.3113 14.5898 25.2945 12.45 25.268 10.3102C25.2516 8.97072 25.227 7.63166 25.1996 6.2926C25.1828 5.46057 25.1649 4.62814 25.1274 3.79729C25.107 3.3508 25.0352 2.90666 25.0059 2.46018C24.9895 2.20354 25.0121 1.94494 25.0172 1.68713C25.3363 2.30549 25.6484 2.92854 25.9766 3.54221C26.4949 4.51252 27.3207 5.22736 28.0641 6.00744C31.0027 9.09025 33.0891 12.6746 34.3895 16.7234Z" fill="#46A037"/>
<path fill-rule="evenodd" clip-rule="evenodd" d="M25.4047 31.5442C25.4363 31.5341 25.4914 31.531 25.4965 31.513C25.6883 30.856 26.2762 30.954 26.7512 30.872C28.0918 30.6399 29.4367 30.4306 30.7797 30.213C32.0789 30.0024 33.3781 29.7907 34.6785 29.5864C34.8324 29.5622 34.993 29.5821 35.1504 29.5817C34.9074 30.4489 34.716 31.3349 34.4078 32.1782C34.0578 33.1349 33.6344 34.0685 33.1848 34.9837C32.5129 36.3521 31.6758 37.6282 30.7031 38.7974C29.9535 39.6989 29.118 40.5321 28.2805 41.3552C27.8176 41.8103 27.2719 42.181 26.7641 42.5899L26.6324 42.5001L26.1582 42.0946L25.6676 41.0192C25.3297 39.7603 25.1523 38.4786 25.123 37.1763L25.132 36.9571L25.1988 36.0095C25.2211 35.686 25.2508 35.363 25.2645 35.0388C25.3148 33.8739 25.3586 32.7091 25.4047 31.5442Z" fill="#409433"/>
<path fill-rule="evenodd" clip-rule="evenodd" d="M25.4041 31.5441C25.358 32.709 25.3143 33.8738 25.2646 35.0391C25.251 35.3633 25.2213 35.6863 25.199 36.0098L24.9002 36.1227C24.2365 34.1688 23.5725 32.2355 22.9229 30.2973C21.8486 27.0906 20.7873 23.8789 19.7146 20.6715C18.8486 18.0824 17.9756 15.4961 17.0975 12.9109C17.0564 12.7898 16.9385 12.6953 16.8564 12.5883L18.7689 9.0719C18.8346 9.18596 18.9213 9.2926 18.9627 9.41526C19.8475 12.0336 20.7307 14.6523 21.6064 17.2738C22.7455 20.684 23.8775 24.0969 25.0158 27.5074C25.0611 27.6438 25.1361 27.7695 25.2076 27.9223L25.4693 27.6176C25.4475 28.9266 25.4256 30.2352 25.4041 31.5441Z" fill="#4FAA41"/>
<path fill-rule="evenodd" clip-rule="evenodd" d="M16.8572 12.5887C16.9393 12.6957 17.0568 12.7902 17.0982 12.9113C17.9764 15.4965 18.8494 18.0828 19.7154 20.6719C20.7881 23.8793 21.8494 27.091 22.9236 30.2977C23.5729 32.2355 24.2369 34.1691 24.901 36.123L25.1998 36.0102L25.133 36.9578L25.0725 37.1762C24.9686 38.2137 24.8811 39.2535 24.7545 40.2887C24.6908 40.8074 24.5557 41.3168 24.4529 41.8305C24.3756 41.7184 24.267 41.6164 24.2252 41.4922C22.0896 35.1262 19.9604 28.7578 17.8283 22.3906C17.1498 20.3645 16.4678 18.3395 15.7807 16.316C15.7459 16.2133 15.6479 16.1328 15.5791 16.0418C16.0049 14.8906 16.4311 13.7395 16.8572 12.5887Z" fill="#4AA73C"/>
<path fill-rule="evenodd" clip-rule="evenodd" d="M25.4699 27.618L25.2082 27.9227C25.1367 27.7699 25.0617 27.6437 25.0164 27.5078C23.8785 24.0973 22.7461 20.6844 21.607 17.2742C20.7313 14.6527 19.848 12.034 18.9633 9.41562C18.9223 9.29297 18.8355 9.18594 18.7695 9.07227L21.1348 5.96094C21.2094 6.06055 21.3156 6.14922 21.3543 6.26133C22.0109 8.18359 22.6617 10.1082 23.3086 12.034C23.9129 13.8324 24.5082 15.6336 25.1195 17.4297C25.1605 17.55 25.3031 17.6352 25.3984 17.7367L25.4031 18.1449C25.4258 21.302 25.448 24.4602 25.4699 27.618Z" fill="#57AE47"/>
<path fill-rule="evenodd" clip-rule="evenodd" d="M25.3984 17.7359C25.3031 17.6344 25.1605 17.5492 25.1195 17.4289C24.5082 15.6328 23.9129 13.8316 23.3086 12.0332C22.6617 10.1074 22.0109 8.18315 21.3543 6.2605C21.3156 6.14839 21.2094 6.05972 21.1348 5.96011C21.9039 5.20698 22.6492 4.4269 23.4492 3.70854C24.1605 3.07026 24.7324 2.38589 24.7586 1.37729C24.7598 1.3355 24.7816 1.2937 24.8152 1.17651L25.018 1.68667C25.0129 1.94487 24.9898 2.20307 25.0066 2.45972C25.0359 2.9062 25.1078 3.35034 25.1281 3.79682C25.1656 4.62768 25.1836 5.46011 25.2004 6.29214C25.2273 7.6312 25.252 8.97026 25.2687 10.3098C25.2949 12.4496 25.3121 14.5895 25.3391 16.7293C25.3422 17.0656 25.3773 17.4004 25.3984 17.7359Z" fill="#60B24F"/>
<path fill-rule="evenodd" clip-rule="evenodd" d="M24.4521 41.8301C24.5549 41.3164 24.69 40.8066 24.7537 40.2883C24.8807 39.2535 24.9678 38.2133 25.0717 37.1758L25.0975 37.1719L25.1232 37.1762C25.1525 38.4785 25.3299 39.7602 25.6678 41.0191C25.599 41.1098 25.5018 41.1906 25.4654 41.293C25.1814 42.0937 24.9139 42.9008 24.6283 43.7016C24.5893 43.8109 24.4807 43.8961 24.4041 43.9922L24.1123 42.9898L24.4521 41.8301Z" fill="#A9AA88"/>
<path fill-rule="evenodd" clip-rule="evenodd" d="M24.4053 43.9926C24.4818 43.8965 24.5908 43.8113 24.6295 43.702C24.915 42.9012 25.183 42.0945 25.4666 41.2934C25.5029 41.191 25.5998 41.1102 25.6689 41.0195L26.1592 42.0953C26.0623 42.2328 25.9287 42.3566 25.8748 42.5098L24.9357 45.2672C24.8971 45.3777 24.765 45.4559 24.6768 45.5492L24.4053 43.9926Z" fill="#B6B598"/>
<path fill-rule="evenodd" clip-rule="evenodd" d="M24.6758 45.5488C24.7645 45.4559 24.8961 45.3773 24.9348 45.2668L25.8738 42.5093C25.9273 42.3565 26.0613 42.2323 26.1582 42.0948L26.6328 42.5C26.4035 42.7266 26.2762 42.9882 26.3527 43.319L26.2086 43.791C26.143 43.8719 26.048 43.9422 26.0156 44.0348C25.6879 44.9734 25.375 45.9172 25.0449 46.8559C25.0031 46.975 24.8871 47.0684 24.8051 47.173C24.7625 46.6312 24.7191 46.0906 24.6758 45.5488Z" fill="#C2C1A7"/>
<path fill-rule="evenodd" clip-rule="evenodd" d="M24.8064 47.173C24.8881 47.068 25.0041 46.9746 25.0463 46.8559C25.3764 45.9176 25.6893 44.9738 26.017 44.0348C26.0494 43.9426 26.1439 43.8719 26.21 43.791L26.0111 45.957C25.958 46.0184 25.8811 46.0719 25.8557 46.1434C25.6311 46.7738 25.4193 47.409 25.1939 48.0395C25.1475 48.1695 25.0584 48.2844 24.9889 48.4059C24.9271 48.325 24.8166 48.2469 24.8115 48.1625C24.7916 47.834 24.8053 47.5031 24.8064 47.173Z" fill="#CECDB7"/>
<path fill-rule="evenodd" clip-rule="evenodd" d="M24.9883 48.4059C25.0578 48.284 25.1469 48.1691 25.1934 48.0395C25.4191 47.4094 25.6305 46.7742 25.8551 46.1434C25.8805 46.0719 25.9578 46.0188 26.0105 45.957L26.0152 47.3789L25.5395 48.5992L24.9883 48.4059Z" fill="#DBDAC7"/>
<path fill-rule="evenodd" clip-rule="evenodd" d="M25.5391 48.5996L26.0148 47.3793L26.1129 48.823L25.5391 48.5996Z" fill="#EBE9DC"/>
<path fill-rule="evenodd" clip-rule="evenodd" d="M26.3524 43.3195C26.2758 42.9887 26.4028 42.7266 26.6325 42.5004L26.7641 42.5902L26.3524 43.3195Z" fill="#CECDB7"/>
<path fill-rule="evenodd" clip-rule="evenodd" d="M25.1238 37.1766L25.098 37.1723L25.0723 37.1762L25.1328 36.9578L25.1238 37.1766Z" fill="#4FAA41"/>
</svg>
