<svg width="50" height="50" viewBox="0 0 50 50" fill="none" xmlns="http://www.w3.org/2000/svg">
<g clip-path="url(#clip0_203_136)">
<path fill-rule="evenodd" clip-rule="evenodd" d="M29.4395 0.0973825C29.0793 0.0973825 28.7427 0.174156 28.4356 0.274551C29.094 0.717474 29.4543 1.29327 29.6374 1.95175C29.6492 2.04033 29.6757 2.1053 29.6876 2.19683C29.6994 2.28837 29.7171 2.35038 29.7171 2.43306C29.7702 3.56989 29.4218 3.71163 29.1738 4.38192C28.7988 5.24709 28.9021 6.17723 29.3509 6.92134C29.392 7.02095 29.4435 7.11597 29.5045 7.20481C29.0143 3.93899 31.7398 3.44587 32.2417 2.42715C32.2801 1.5354 31.5449 0.941887 30.9632 0.528493C30.408 0.191873 29.9002 0.0855713 29.4395 0.0855713V0.0973825ZM33.5439 0.835586C33.4908 1.13087 33.5321 1.05409 33.5144 1.21059L33.4849 1.54721L33.3963 1.85726C33.3668 1.96061 33.3313 2.06396 33.2929 2.16731L33.1512 2.46259C33.1128 2.51574 33.0863 2.56594 33.0479 2.61613L32.9711 2.73425L32.7762 2.99114C32.6994 3.06791 32.6345 3.15945 32.54 3.22737C32.4455 3.29528 32.3864 3.38091 32.2949 3.44587C32.0232 3.65257 31.7132 3.80612 31.4297 4.001C31.3411 4.06596 31.2526 4.11912 31.1728 4.19589C31.0854 4.25772 31.0034 4.32687 30.9277 4.40259C30.8392 4.47936 30.7742 4.55613 30.6915 4.64767C30.6088 4.73921 30.5498 4.81598 30.4966 4.90456L30.3195 5.17622L30.1777 5.4715L30.0744 5.76679L29.9858 6.09159C29.974 6.14475 29.974 6.20971 29.9563 6.25991C29.9386 6.3101 29.9445 6.36325 29.9267 6.41345L29.9149 6.73826C29.9149 6.81503 29.9149 6.89181 29.9267 6.97449C29.9267 7.07783 29.9385 7.18118 29.9651 7.2993C29.9917 7.41741 30.0035 7.50599 30.0301 7.60934L30.1334 7.91939C30.163 7.98435 30.1984 8.04931 30.222 8.09656L27.2515 6.94496L25.7544 6.56109L24.9394 6.36621C24.1622 6.21129 23.3778 6.095 22.589 6.01778C22.5595 6.01778 22.5506 6.00596 22.524 6.00596L20.212 5.88785L18.52 5.95281C17.7316 6.00596 16.9432 6.10636 16.1578 6.23628L15.5761 6.33963L14.4127 6.59653L13.8309 6.75007L13.2758 6.99516L12.8506 7.19004C12.8211 7.20185 12.7975 7.20185 12.7857 7.21957L12.4254 7.39674C12.387 7.40855 12.3604 7.42627 12.3368 7.43513L11.9352 7.64182C11.8467 7.68021 11.7581 7.73041 11.6783 7.77175C11.64 7.80127 11.5898 7.82194 11.5602 7.83671L11.2236 8.03159C11.1167 8.09067 11.0132 8.15574 10.9136 8.22648L10.6567 8.40365L10.3732 8.61035L10.1547 8.78751C10.1252 8.79933 10.1015 8.8259 10.0779 8.84066L9.88304 9.00898C9.87123 9.0385 9.84465 9.04736 9.82989 9.06213L9.59366 9.28063L9.33677 9.52572L9.11826 9.76194C9.08873 9.79147 9.0533 9.81509 9.02968 9.83872C8.9603 9.91964 8.88739 9.99748 8.81117 10.072C8.79936 10.1015 8.77278 10.1104 8.75802 10.137L8.46273 10.447L7.76587 11.1173C7.52965 11.324 7.28751 11.5189 7.04243 11.6842L6.26879 12.1744C6.0119 12.3161 5.73729 12.4461 5.45382 12.5583C5.17942 12.675 4.89956 12.7785 4.61522 12.8683C4.0719 12.9864 3.51677 13.2049 3.03842 13.2433C2.93507 13.2433 2.81991 13.2728 2.71361 13.2817L2.3888 13.3585L2.07875 13.4766C1.97303 13.5185 1.86955 13.5658 1.76871 13.6183C1.68012 13.6833 1.57382 13.7364 1.48524 13.7955C1.39665 13.8545 1.30807 13.9372 1.22834 14.014C1.14861 14.0908 1.05117 14.1675 0.971446 14.2502L0.752937 14.5071C0.687976 14.6105 0.611202 14.702 0.558052 14.8024C0.490472 14.8971 0.430254 14.9968 0.37793 15.1006L0.236195 15.4373L0.118083 15.7739L0.0531207 16.0839C0.0147341 16.2375 0.0147341 16.394 -2.99881e-05 16.4678C-0.0147941 16.5416 -2.99881e-05 16.639 -2.99881e-05 16.7306C-0.00253844 16.787 0.00142453 16.8434 0.0117813 16.8989C0.0235925 16.9875 0.0413094 17.0672 0.0649319 17.144L0.153516 17.3802C0.191903 17.4688 0.242101 17.5485 0.295251 17.6253L0.463562 17.8615L0.68207 18.0682C0.757762 18.1439 0.839752 18.2131 0.927154 18.2749C1.2372 18.5466 1.31102 18.6352 1.71555 18.8418C1.78052 18.8802 1.84548 18.9068 1.92225 18.9452C1.96064 18.9836 1.96064 18.9954 1.9754 19.022C1.98721 19.1253 2.01379 19.2287 2.04036 19.332C2.06502 19.4384 2.09962 19.5422 2.14371 19.6421L2.24706 19.8783C2.25887 19.9078 2.27659 19.9314 2.28545 19.9432L2.43899 20.2267L2.63388 20.4984L2.85239 20.7435C2.92916 20.8202 3.00593 20.8852 3.09747 20.962L3.35437 21.1569C3.44295 21.2218 3.53154 21.275 3.63784 21.3252C3.73337 21.3802 3.83309 21.4276 3.93607 21.4669C4.01284 21.5053 4.10438 21.5319 4.19297 21.5555C4.28155 21.5791 4.36128 21.6086 4.41147 21.6204C4.37309 22.3173 4.35832 22.9787 4.46462 23.2091C4.58274 23.466 5.14968 22.6776 5.71662 21.7769C5.63984 22.6687 5.58669 23.714 5.71662 24.0211C5.84654 24.3282 6.63199 23.336 7.30523 22.2258C16.459 20.1086 24.8154 26.4365 25.6924 35.3717C25.5241 33.978 23.8085 33.2014 23.0201 33.3933C22.6362 34.35 21.9748 35.5784 20.9148 36.3373C21.0033 35.481 20.9649 34.6069 20.7848 33.7536C20.496 34.9423 19.9496 36.0531 19.1844 37.0076C17.959 37.0961 16.7336 36.5056 16.0839 35.6138C16.0308 35.5754 16.019 35.4957 15.9806 35.4455L15.8772 35.1739C15.8389 35.0853 15.8123 34.9967 15.8005 34.9022C15.7887 34.8077 15.7887 34.725 15.7887 34.6187V34.4238C15.8005 34.3353 15.8271 34.2467 15.8536 34.1522L15.9422 33.8805C15.9954 33.7919 16.0308 33.7034 16.0958 33.6089C16.3143 33.0183 16.3143 32.4868 15.9186 32.1915C15.8418 32.1384 15.765 32.1029 15.6735 32.0616C15.6204 32.0498 15.5554 32.0232 15.5052 32.0084L15.4018 31.9701L15.1302 31.9051C15.0419 31.8796 14.9504 31.8666 14.8585 31.8667C14.7648 31.8514 14.67 31.8426 14.5751 31.8401C14.5101 31.8401 14.4451 31.8519 14.3802 31.8519C14.2843 31.8511 14.1889 31.8641 14.0967 31.8903L13.825 31.9405L13.5534 32.0291L13.2965 32.1472L13.0514 32.2771C10.0395 34.2408 11.8408 38.8324 13.89 40.1671C13.1164 40.3088 12.325 40.4771 12.1095 40.6454C12.641 41.0057 13.2197 41.295 13.828 41.5372L15.9186 42.1277C16.9905 42.364 18.0741 42.4378 19.1726 42.3728C21.9628 42.1685 24.5997 41.0178 26.6471 39.1112C28.6944 37.2045 30.0296 34.656 30.4317 31.8874L30.5084 32.224L30.6266 32.9474L30.6797 33.2959L30.7092 33.6797L30.7388 34.1049V34.3116C30.7388 34.3766 30.7506 34.4534 30.7506 34.5183C30.7506 34.5833 30.7388 34.6719 30.7388 34.7546V34.9317C30.7388 35.0203 30.727 35.1 30.727 35.1886C30.727 35.2388 30.727 35.292 30.7151 35.3569L30.7033 35.6404C30.6915 35.6788 30.6915 35.7172 30.6915 35.7585L30.6531 36.0538C30.6531 36.0922 30.6531 36.1306 30.6413 36.1719L30.5911 36.5469V36.5764L30.5143 36.9367L30.4376 37.3206L30.3342 37.7221L30.2309 38.1237L30.101 38.5371L29.8175 39.2871L29.6639 39.6621L29.4868 40.0224C29.475 40.0608 29.4572 40.0873 29.4484 40.111C28.5832 41.8413 27.343 43.3295 25.7928 44.487C25.6894 44.552 25.5861 44.6288 25.4828 44.7055C25.4532 44.7351 25.4178 44.7439 25.3942 44.7705L25.1107 44.9654L25.1491 45.0422H25.1609L25.7042 44.9654H25.716L26.72 44.7882C26.8086 44.7764 26.9149 44.7498 27.0035 44.7233L27.1806 44.6849L27.4523 44.6347L27.6885 44.5697C28.9789 44.2597 30.2279 43.8315 31.4327 43.3295C29.3805 46.1347 26.6284 48.3907 23.4128 49.8759C24.8981 49.7726 26.3834 49.5275 27.8125 49.1141C33.0154 47.5786 37.3944 44.0795 40.0165 39.3639C39.4848 42.3537 38.2991 45.1891 36.544 47.6672C37.796 46.8404 38.9446 45.8867 39.9929 44.803C42.883 41.7853 44.7801 37.9551 45.429 33.8274C45.8719 35.8648 45.996 37.9731 45.804 40.0519C55.1261 27.0477 46.5777 13.5652 42.9988 10.0159C42.987 9.98636 42.9693 9.9775 42.9693 9.95092C42.9398 10.1045 42.9309 10.261 42.9191 10.4145C42.8807 10.7098 42.8423 10.9962 42.7892 11.2797C42.736 11.5632 42.6475 11.8466 42.5707 12.136C42.4939 12.4254 42.3758 12.6911 42.2606 12.9628C42.1455 13.2345 42.0156 13.4943 41.8768 13.7512C41.7345 14.0038 41.5797 14.2491 41.4132 14.4864C41.2449 14.7315 41.0648 14.9648 40.8817 15.1833C40.6889 15.4081 40.486 15.6239 40.2734 15.83C40.1435 15.9481 40.0283 16.0485 39.8984 16.1548L39.6031 16.4117C39.3725 16.5946 39.1309 16.7632 38.8797 16.9166C38.6331 17.0757 38.3788 17.2225 38.1178 17.3566C37.8462 17.4865 37.5745 17.6017 37.3029 17.7168C37.0279 17.8209 36.748 17.9115 36.4643 17.9885C36.1808 18.0653 35.8826 18.1302 35.5991 18.1834C35.3156 18.2365 35.0085 18.2601 34.7221 18.2867C34.5154 18.2985 34.3087 18.3162 34.1315 18.3162C33.8363 18.3162 33.541 18.2867 33.2546 18.2631C32.9681 18.2395 32.664 18.1981 32.3746 18.1332C32.0816 18.0802 31.7925 18.0072 31.5094 17.9147H31.4976C31.7811 17.8851 32.0646 17.8615 32.354 17.8113C32.6433 17.7611 32.9357 17.6932 33.2191 17.6164C33.5026 17.5397 33.7861 17.4481 34.0577 17.3448C34.3294 17.2414 34.6129 17.1085 34.8727 16.9845C35.1374 16.8555 35.3955 16.7136 35.6463 16.5593C35.8914 16.391 36.1365 16.2227 36.3698 16.0426C36.6011 15.8625 36.8211 15.6683 37.0283 15.4609C37.2468 15.266 37.4417 15.0475 37.6365 14.829C37.8314 14.6105 38.0115 14.3654 38.1799 14.1321C38.2094 14.0937 38.233 14.0435 38.2566 14.0022L38.6316 13.4116C38.7734 13.1547 38.9033 12.8949 39.0155 12.6232C39.1277 12.3516 39.234 12.0799 39.3255 11.7964C39.4171 11.513 39.4791 11.2413 39.5441 10.9578C39.609 10.6744 39.6474 10.3761 39.674 10.0927C39.7006 9.80919 39.7242 9.5021 39.7242 9.21567C39.7242 9.00898 39.7124 8.80228 39.6946 8.62511C39.6651 8.32983 39.6297 8.04341 39.5913 7.75994C39.5399 7.46865 39.4749 7.17994 39.3964 6.89476C39.3078 6.6231 39.2192 6.33963 39.1129 6.06797C39.0066 5.79631 38.8767 5.52465 38.7527 5.27071C38.6287 5.01677 38.4692 4.75397 38.3098 4.50889C38.1503 4.2638 37.9732 4.03053 37.793 3.80021L37.2025 3.14173C37.0934 3.03123 36.9811 2.9239 36.8658 2.81988C36.2873 2.37018 35.6882 1.94747 35.0705 1.55312C34.982 1.50292 34.9022 1.46454 34.8136 1.4232C34.3884 1.15154 33.9869 1.0098 33.5882 0.879878L33.5439 0.835586Z" fill="#EA2845"/>
</g>
<defs>
<clipPath id="clip0_203_136">
<rect width="50" height="50" fill="white"/>
</clipPath>
</defs>
</svg>
