<svg width="59" height="59" viewBox="0 0 59 59" fill="white" xmlns="http://www.w3.org/2000/svg">
<g clip-path="url(#clip0_865_95)">
<path d="M27.5677 0.014569C27.4399 0.0268607 27.0368 0.0686523 26.6729 0.095694C18.2949 0.852861 10.4479 5.37374 5.47225 12.3234C2.72457 16.1381 0.938395 20.5597 0.2655 25.2125C0.0295 26.835 0 27.3119 0 29.5097C0 31.7074 0.0295 32.1868 0.2655 33.8068C1.86833 44.8865 9.75467 54.1938 20.446 57.6428C22.361 58.2599 24.3793 58.6802 26.6729 58.9359C27.5678 59.0342 31.4322 59.0342 32.3271 58.9359C36.2875 58.4959 39.6455 57.515 42.9545 55.8261C43.4633 55.568 43.5617 55.4967 43.4928 55.4402C41.8743 53.3056 40.2722 51.1586 38.6868 48.9993L33.9692 42.6249L28.0594 33.8757C26.093 30.9493 24.1083 28.0353 22.1053 25.1338C22.0832 25.1264 22.0611 29.0131 22.0488 33.7626C22.0316 42.0717 22.0242 42.4061 21.921 42.6027C21.8203 42.8323 21.6406 43.018 21.4145 43.1264C21.2302 43.2198 21.0704 43.237 20.1977 43.237H19.1996L18.9341 43.0698C18.7698 42.9661 18.6365 42.82 18.5481 42.647L18.4252 42.3889L18.4375 30.8249L18.4547 19.2559L18.6342 19.0298C18.755 18.8884 18.8998 18.7694 19.0619 18.6782C19.2979 18.5627 19.3889 18.5529 20.3894 18.5529C21.5645 18.5529 21.7612 18.5971 22.066 18.9314C22.152 19.0249 25.3528 23.8481 29.1829 29.6547L40.8206 47.2859L45.4915 54.361L45.7299 54.2061C47.9778 52.7116 50.0158 50.9233 51.7897 48.8887C55.5071 44.634 57.9184 39.3975 58.7345 33.8068C58.9705 32.1843 59 31.7074 59 29.5097C59 27.3119 58.9705 26.835 58.7345 25.2125C57.1317 14.1352 49.2453 4.82553 38.554 1.37649C36.5559 0.741177 34.4983 0.310398 32.4131 0.0907773C31.8575 0.0317773 28.0471 -0.0321393 27.5702 0.0170273L27.5677 0.014569ZM39.6455 17.8621C39.7826 17.9311 39.9047 18.0266 40.0047 18.1431C40.1047 18.2595 40.1806 18.3946 40.2282 18.5406C40.2724 18.6881 40.2847 21.8962 40.2724 29.1237L40.2552 39.493L38.4287 36.6904L36.5947 33.8879V26.3507C36.5947 21.4758 36.6169 18.7372 36.6513 18.6045C36.6922 18.4509 36.7639 18.3073 36.8619 18.1822C36.9599 18.0571 37.0823 17.9532 37.2216 17.8768C37.4601 17.7539 37.5461 17.7441 38.4508 17.7441C39.3038 17.7441 39.4538 17.7564 39.6455 17.8596V17.8621Z" fill="black"/>
</g>
<defs>
<clipPath id="clip0_865_95">
<rect width="59" height="59" fill="white"/>
</clipPath>
</defs>
</svg>
