<svg width="50" height="50" viewBox="0 0 50 50" fill="none" xmlns="http://www.w3.org/2000/svg">
<g clip-path="url(#clip0_203_138)">
<path d="M25 50C24.3306 50.0002 23.673 49.8229 23.0933 49.4857L17.0258 45.866C16.1203 45.3553 16.5615 45.1749 16.861 45.0696C17.824 44.7697 18.7462 44.3498 19.6059 43.8196C19.6779 43.786 19.7571 43.7715 19.8362 43.7775C19.9153 43.7834 19.9915 43.8096 20.0578 43.8535L24.72 46.6446C24.8068 46.6909 24.9036 46.7151 25.0018 46.7151C25.1 46.7151 25.1967 46.6909 25.2835 46.6446L43.4648 36.0694C43.5498 36.0181 43.6202 35.9453 43.669 35.8583C43.7178 35.7713 43.7433 35.673 43.743 35.573V14.4191C43.743 14.3176 43.7171 14.2178 43.6678 14.1293C43.6184 14.0408 43.5473 13.9665 43.4612 13.9138L25.28 3.34757C25.1943 3.29891 25.0975 3.27335 24.9991 3.27335C24.9007 3.27335 24.804 3.29891 24.7182 3.34757L6.54766 13.9174C6.46098 13.969 6.38901 14.0423 6.33872 14.1303C6.28843 14.2182 6.26151 14.3177 6.26058 14.4191V35.5641C6.26083 35.6638 6.28738 35.7617 6.33751 35.8476C6.38765 35.9336 6.45956 36.0046 6.54588 36.0534L11.5324 38.9534C14.2348 40.3141 15.8899 38.7106 15.8899 37.0998V16.2227C15.8899 16.0807 15.9459 15.9444 16.0456 15.8439C16.1453 15.7435 16.2805 15.687 16.4215 15.687H18.7252C18.8662 15.687 19.0014 15.7435 19.1011 15.8439C19.2008 15.9444 19.2568 16.0807 19.2568 16.2227V37.1016C19.2568 40.7356 17.2934 42.816 13.8733 42.816C12.3979 42.8419 10.9455 42.4442 9.68595 41.6695L4.90674 38.907C4.32655 38.5665 3.84513 38.0786 3.51055 37.492C3.17597 36.9054 2.99994 36.2407 3.00001 35.5641V14.4191C2.99829 13.7415 3.17358 13.0754 3.50828 12.4876C3.84298 11.8999 4.32528 11.4113 4.90674 11.0709L23.0897 0.49217C23.6754 0.16925 24.3324 0 25 0C25.6676 0 26.3246 0.16925 26.9103 0.49217L45.0915 11.0709C45.6716 11.4107 46.1532 11.8979 46.488 12.4839C46.8229 13.0698 46.9995 13.734 47 14.4102V35.5641C46.999 36.2407 46.8223 36.9052 46.4875 37.4917C46.1527 38.0781 45.6714 38.566 45.0915 38.907L26.9103 49.4857C26.3295 49.8234 25.6706 50.0008 25 50Z" fill="#83CD29"/>
<path d="M21 29.0092C21 28.8622 21.0599 28.7213 21.1666 28.6173C21.2732 28.5134 21.4178 28.455 21.5687 28.455H24.0841C24.2185 28.4554 24.3484 28.5022 24.4507 28.5871C24.5531 28.672 24.6213 28.7895 24.6433 28.9187C25.0224 31.4146 26.1597 32.6727 31.3023 32.6727C35.3986 32.6727 37.1444 31.7693 37.1444 29.6503C37.1444 28.4291 36.6497 27.522 30.2825 26.9142C24.9598 26.4006 21.6691 25.2515 21.6691 21.1058C21.6691 17.2816 24.9769 15 30.5214 15C36.7521 15 39.8361 17.1079 40.2266 21.6305C40.2326 21.706 40.2226 21.7819 40.1973 21.8535C40.172 21.9251 40.1319 21.9909 40.0795 22.0468C40.0271 22.1027 39.9635 22.1476 39.8926 22.1786C39.8218 22.2096 39.7451 22.2262 39.6674 22.2272H37.135C37.0079 22.2255 36.8851 22.1823 36.7862 22.1047C36.6872 22.027 36.6178 21.9192 36.589 21.7986C35.9844 19.1734 34.5039 18.3346 30.5233 18.3346C26.0498 18.3346 25.5304 19.8533 25.5304 20.9913C25.5304 22.3695 26.1445 22.7722 32.1838 23.55C38.1605 24.3204 41 25.4104 41 29.5043C41 33.6352 37.4667 36 31.3042 36C22.7837 36.0111 21 32.2035 21 29.0092Z" fill="#83CD29"/>
</g>
<defs>
<clipPath id="clip0_203_138">
<rect width="50" height="50" fill="white"/>
</clipPath>
</defs>
</svg>
