<svg width="58" height="59" viewBox="0 0 58 59" fill="none" xmlns="http://www.w3.org/2000/svg">
<g clip-path="url(#clip0_865_82)">
<path d="M57.4084 35.3299C57.0653 34.2909 56.1667 33.5673 55.0046 33.3936C54.4566 33.3118 53.829 33.3467 53.0864 33.4998C51.792 33.7669 50.8316 33.8685 50.1308 33.8882C52.7762 29.4219 54.9272 24.3286 56.1656 19.5342C58.168 11.7818 57.0979 8.25003 55.8475 6.65256C52.5384 2.42423 47.7105 0.15273 41.886 0.0832257C38.7789 0.0452333 36.0513 0.658699 34.6283 1.09986C33.3035 0.866093 31.879 0.735578 30.3844 0.711442C27.5825 0.666745 25.107 1.27753 22.9917 2.53284C21.8206 2.13683 19.9411 1.57856 17.7706 1.22233C12.6658 0.38426 8.55145 1.03728 5.542 3.16329C1.89786 5.73739 0.208539 10.2098 0.52097 16.4562C0.620198 18.4394 1.72958 24.4735 3.47633 30.196C4.48023 33.4853 5.55072 36.2167 6.65809 38.3152C8.22852 41.2909 9.9089 43.0433 11.7953 43.6726C12.8526 44.0248 14.7737 44.2715 16.7942 42.5887C17.0504 42.8989 17.3921 43.2071 17.8455 43.4934C18.4214 43.8565 19.1256 44.1533 19.8289 44.3292C22.3635 44.9628 24.7376 44.8043 26.763 43.9162C26.7755 44.2765 26.7851 44.6206 26.7932 44.9179C26.8066 45.3999 26.82 45.8726 26.8376 46.3146C26.9577 49.3035 27.161 51.6275 27.7635 53.2536C27.7966 53.343 27.8411 53.4793 27.888 53.6239C28.1886 54.5442 28.6912 56.085 29.97 57.2915C31.2942 58.5415 32.8959 58.9248 34.3628 58.9248C35.0985 58.9248 35.8005 58.8282 36.4162 58.6964C38.6108 58.2259 41.1034 57.5094 42.9064 54.9421C44.6112 52.515 45.4399 48.8595 45.5898 43.0996C45.6093 42.9367 45.6271 42.7811 45.6443 42.633L45.6801 42.3286L46.0817 42.3639L46.1852 42.3708C48.4205 42.4727 51.1537 41.9987 52.8323 41.219C54.1587 40.6035 58.4091 38.3595 57.4084 35.3299Z" fill="black"/>
<path d="M53.5872 35.9188C46.9407 37.2899 46.4837 35.0396 46.4837 35.0396C53.5011 24.6268 56.4348 11.4092 53.9034 8.17427C46.9968 -0.650027 35.0415 3.52333 34.8419 3.6315L34.7778 3.64312C33.4646 3.37047 31.9952 3.20822 30.3434 3.18117C27.3362 3.13201 25.0549 3.96963 23.3238 5.28238C23.3238 5.28238 1.9966 -3.50371 2.98864 16.3324C3.19961 20.5522 9.03704 48.2623 15.9995 39.8926C18.5443 36.832 21.0033 34.2442 21.0033 34.2442C22.2244 35.0555 23.6865 35.4694 25.2191 35.3208L25.3382 35.2197C25.3011 35.5997 25.3181 35.9713 25.3859 36.4114C23.5922 38.4153 24.1194 38.7671 20.5338 39.5053C16.9055 40.2531 19.0369 41.5841 20.4285 41.9323C22.1156 42.354 26.0185 42.9516 28.6557 39.2599L28.5506 39.6812C29.2533 40.2441 29.7467 43.3425 29.664 46.1515C29.5813 48.9603 29.5261 50.8887 30.0797 52.395C30.6337 53.9013 31.1855 57.2904 35.8992 56.2805C39.8377 55.4364 41.8788 53.2492 42.1629 49.6005C42.3642 47.0068 42.8204 47.3903 42.849 45.0712L43.2148 43.9734C43.6365 40.4573 43.2818 39.3229 45.7082 39.8506L46.2982 39.9024C48.0839 39.9835 50.4215 39.615 51.7935 38.9774C54.7475 37.6066 56.4996 35.3174 53.5867 35.9188H53.5872Z" fill="#336791"/>
<path d="M24.5708 18.2198C23.9718 18.1365 23.4294 18.2136 23.155 18.4214C23.0008 18.5383 22.953 18.6737 22.94 18.7669C22.9056 19.0139 23.0786 19.287 23.1849 19.4277C23.4858 19.8264 23.9251 20.1004 24.36 20.1608C24.423 20.1697 24.4858 20.1737 24.5482 20.1737C25.2734 20.1737 25.9329 19.609 25.991 19.1922C26.0636 18.6701 25.3058 18.3222 24.5708 18.22V18.2198ZM44.4127 18.2364C44.3554 17.8272 43.6273 17.7105 42.9363 17.8066C42.2462 17.9027 41.5771 18.2142 41.6329 18.6243C41.6776 18.9432 42.2536 19.4876 42.9352 19.4876C42.9928 19.4876 43.051 19.4838 43.1095 19.4756C43.5645 19.4126 43.8984 19.1236 44.0571 18.9571C44.2985 18.7032 44.4384 18.4203 44.4127 18.2364Z" fill="white"/>
<path d="M55.7983 35.7632C55.5449 34.9969 54.7291 34.7504 53.3739 35.0302C49.3501 35.8606 47.9091 35.2854 47.4359 34.937C50.5636 30.1723 53.1366 24.4126 54.5247 19.0389C55.1822 16.4934 55.5453 14.1294 55.575 12.2025C55.6079 10.0877 55.2476 8.53359 54.5048 7.58423C51.5096 3.75705 47.1137 1.70412 41.7925 1.6478C38.1343 1.60668 35.0435 2.54285 34.4443 2.80612C33.1825 2.49235 31.807 2.2997 30.3094 2.27512C27.5632 2.23065 25.1894 2.88814 23.224 4.22838C22.3703 3.91058 20.1641 3.15319 17.466 2.71851C12.8014 1.9676 9.09466 2.5366 6.4495 4.41052C3.29322 6.64671 1.8361 10.644 2.11836 16.291C2.21334 18.1908 3.2959 24.0354 5.00422 29.6326C7.25292 36.9995 9.6974 41.17 12.2693 42.0279C12.5703 42.1283 12.9174 42.1985 13.3002 42.1985C14.2384 42.1985 15.3887 41.7756 16.5854 40.3368C18.0451 38.5857 19.5551 36.8771 21.1135 35.2132C22.1245 35.7558 23.2352 36.0589 24.3712 36.0893C24.3734 36.119 24.3763 36.1487 24.379 36.1782C24.1835 36.4114 23.992 36.648 23.8047 36.8878C23.0175 37.887 22.8537 38.095 20.3201 38.6167C19.5993 38.7655 17.6852 39.16 17.657 40.5018C17.6266 41.9678 19.9198 42.5835 20.1811 42.6488C21.0916 42.8767 21.9687 42.9891 22.8052 42.9891C24.8396 42.9891 26.63 42.3205 28.0607 41.0267C28.0167 46.2531 28.2346 51.4031 28.8621 52.9722C29.3761 54.2568 30.6317 57.3961 34.5976 57.3959C35.1796 57.3959 35.8201 57.3282 36.5247 57.1771C40.6639 56.2898 42.4614 54.4604 43.1567 50.4272C43.5288 48.2717 44.1673 43.1246 44.4676 40.3636C45.1014 40.5614 45.9174 40.6519 46.7995 40.6517C48.6392 40.6517 50.7621 40.2608 52.0934 39.6429C53.5889 38.9483 56.2877 37.244 55.7983 35.7632ZM45.9413 17.1067C45.9276 17.9217 45.8155 18.6617 45.6966 19.4341C45.5685 20.2648 45.4362 21.1236 45.4029 22.1662C45.3701 23.1808 45.4968 24.2356 45.6192 25.2558C45.8669 27.3164 46.121 29.4377 45.1374 31.5309C44.974 31.2414 44.8285 30.9421 44.7016 30.6349C44.5794 30.3386 44.3139 29.8625 43.9462 29.2037C42.5162 26.639 39.1672 20.6331 40.8816 18.1823C41.3922 17.4529 42.6882 16.7029 45.9413 17.1067ZM41.9981 3.29823C46.7659 3.40349 50.5375 5.18713 53.2077 8.59929C55.2557 11.2165 53.0005 23.1254 46.4718 33.3992C46.4062 33.3157 46.3402 33.2325 46.2738 33.1496L46.1911 33.0463C47.8782 30.2601 47.5484 27.5034 47.2547 25.0594C47.134 24.0564 47.02 23.109 47.0491 22.2191C47.079 21.276 47.2037 20.467 47.3244 19.6848C47.4726 18.7209 47.6235 17.7235 47.5819 16.5478C47.6129 16.4244 47.6255 16.2787 47.6091 16.1057C47.503 14.9782 46.2157 11.6038 43.592 8.54968C42.1568 6.87913 40.0639 5.00968 37.2062 3.74878C38.4353 3.49401 40.1161 3.25644 41.9981 3.29823ZM15.3189 39.2838C14.0004 40.8692 13.0899 40.5652 12.7904 40.4655C10.8394 39.8148 8.57551 35.691 6.57956 29.1519C4.85247 23.4937 3.84322 17.804 3.76321 16.2085C3.51112 11.1627 4.73425 7.64613 7.39886 5.75634C11.7354 2.68119 18.865 4.52181 21.7298 5.45531C21.6887 5.49598 21.6458 5.53398 21.6051 5.57532C16.9039 10.323 17.0154 18.4346 17.027 18.9306C17.0266 19.1219 17.0427 19.3927 17.0646 19.7653C17.1455 21.1296 17.2961 23.6689 16.8938 26.5445C16.5202 29.2167 17.3439 31.8321 19.1535 33.7203C19.3392 33.9137 19.5344 34.0978 19.7384 34.2719C18.9329 35.1345 17.1824 37.0422 15.3189 39.2838ZM20.3427 32.5808C18.8842 31.0588 18.2218 28.942 18.5251 26.7724C18.9497 23.7348 18.793 21.0892 18.7088 19.6678C18.6969 19.4689 18.6864 19.2946 18.6804 19.1572C19.3671 18.5482 22.5498 16.843 24.8195 17.363C25.8551 17.6001 26.4863 18.3055 26.7486 19.5185C28.1065 25.7991 26.9283 28.4168 25.9816 30.5205C25.7865 30.9538 25.6021 31.3635 25.4448 31.7872L25.3228 32.1148C25.0139 32.9431 24.7265 33.7132 24.5484 34.4444C22.9979 34.4399 21.4896 33.7775 20.3427 32.5806V32.5808ZM20.5807 41.0509C20.1279 40.9378 19.7207 40.7413 19.4818 40.5784C19.6814 40.4845 20.0365 40.3567 20.6524 40.2298C23.633 39.6163 24.0934 39.1832 25.0986 37.9069C25.329 37.6141 25.5903 37.2825 25.9521 36.8784L25.9526 36.8779C26.4914 36.2745 26.7379 36.3769 27.1849 36.5624C27.5471 36.7121 27.9 37.1662 28.043 37.666C28.1108 37.902 28.1867 38.3498 27.938 38.6985C25.8381 41.6386 22.7782 41.6009 20.5807 41.0509ZM36.1797 55.5666C32.5333 56.3479 31.2422 54.4874 30.3914 52.3605C29.8423 50.9874 29.5724 44.7956 29.7639 37.9576C29.7663 37.8666 29.7534 37.7788 29.7283 37.6961C29.706 37.5328 29.6719 37.3714 29.6264 37.213C29.3417 36.218 28.6478 35.3857 27.8153 35.0407C27.4846 34.9037 26.8776 34.6523 26.1481 34.8389C26.3037 34.1979 26.5734 33.474 26.866 32.6903L26.9886 32.3606C27.1268 31.989 27.3002 31.6039 27.4834 31.1963C28.4742 28.9954 29.8309 25.9808 28.3584 19.1706C27.8068 16.6197 25.9649 15.374 23.1726 15.6634C21.4987 15.8366 19.9672 16.512 19.2033 16.8993C19.0391 16.9824 18.8889 17.0629 18.7485 17.1411C18.9617 14.571 19.7672 9.7679 22.7802 6.72895C24.6774 4.81592 27.2039 3.87103 30.2821 3.92198C36.3475 4.02121 40.2371 7.1339 42.4321 9.72789C44.3237 11.963 45.3479 14.2146 45.7567 15.429C42.6826 15.1163 40.5919 15.7231 39.5322 17.2383C37.2265 20.5343 40.7935 26.9313 42.5079 30.0058C42.8223 30.5692 43.0936 31.0562 43.179 31.2631C43.7373 32.6161 44.46 33.5194 44.9877 34.1787C45.1495 34.3807 45.3064 34.5767 45.4257 34.7479C44.4947 35.0163 42.8223 35.6365 42.9747 38.7364C42.8518 40.2919 41.9778 47.5744 41.5337 50.1474C40.9475 53.5466 39.6967 54.8126 36.1797 55.5669V55.5666ZM51.3999 38.1491C50.4479 38.591 48.8546 38.9224 47.3412 38.9937C45.6695 39.0719 44.8185 38.8064 44.6182 38.643C44.5244 36.7112 45.2433 36.5094 46.0043 36.2958C46.1239 36.2622 46.2405 36.2294 46.3532 36.1901C46.4231 36.2471 46.4998 36.3036 46.5838 36.359C47.9274 37.2458 50.3238 37.3415 53.7072 36.6431L53.7443 36.6357C53.2879 37.0623 52.507 37.6349 51.3999 38.1491Z" fill="white"/>
</g>
<defs>
<clipPath id="clip0_865_82">
<rect width="57.2121" height="59" fill="white" transform="translate(0.417969)"/>
</clipPath>
</defs>
</svg>
