<svg width="50" height="50" viewBox="0 0 50 50" fill="none" xmlns="http://www.w3.org/2000/svg">
<path d="M24.8203 3.2812C13.7266 3.2812 14.4281 8.07808 14.4281 8.07808V13.0624H24.9781V14.6249H10.2266C10.2266 14.6249 3.125 13.7499 3.125 25.0078C3.125 36.2656 9.39531 35.8078 9.39531 35.8078H13.0156V30.5562C13.0156 30.5562 12.8125 24.2859 19.1094 24.2859H29.675C29.675 24.2859 35.5687 24.3796 35.5687 18.5796V9.06245C35.5687 9.06245 36.4625 3.26245 24.8781 3.26245L24.8203 3.2812ZM18.9891 6.62026C19.3641 6.6108 19.7336 6.71277 20.0507 6.91329C20.3678 7.1138 20.6183 7.40385 20.7706 7.74674C20.9228 8.08964 20.97 8.46999 20.9061 8.83969C20.8421 9.20939 20.67 9.55183 20.4115 9.8237C20.1529 10.0956 19.8196 10.2847 19.4536 10.3671C19.0875 10.4495 18.7053 10.4215 18.3552 10.2867C18.0051 10.1518 17.7028 9.9162 17.4866 9.60957C17.2704 9.30293 17.15 8.93908 17.1406 8.56401V8.53276C17.1406 8.28366 17.1897 8.037 17.285 7.80686C17.3803 7.57672 17.5201 7.36761 17.6962 7.19147C17.8723 7.01533 18.0815 6.87561 18.3116 6.78028C18.5417 6.68495 18.7884 6.63589 19.0375 6.63589L18.9891 6.62026Z" fill="url(#paint0_linear_203_141)"/>
<path d="M25.1328 46.7344C36.2265 46.7344 35.525 41.9219 35.525 41.9219V36.9532H24.9765V35.3907H39.7734C39.7734 35.3907 46.875 36.1844 46.875 24.9922C46.875 13.8 40.6047 14.1922 40.6047 14.1922H36.9375V19.375C36.9375 19.375 37.1406 25.6454 30.8437 25.6454H20.2734C20.2734 25.6454 14.375 25.5563 14.375 31.3563V40.9375C14.375 40.9375 13.4812 46.7375 25.0656 46.7375H25.1281L25.1328 46.7344ZM30.964 43.3797C30.589 43.3892 30.2195 43.2872 29.9024 43.0867C29.5853 42.8862 29.3348 42.5961 29.1825 42.2533C29.0303 41.9104 28.9831 41.53 29.0471 41.1603C29.111 40.7906 29.2831 40.4482 29.5416 40.1763C29.8002 39.9044 30.1335 39.7153 30.4996 39.6329C30.8656 39.5505 31.2478 39.5785 31.5979 39.7133C31.948 39.8482 32.2503 40.0838 32.4665 40.3904C32.6827 40.6971 32.8031 41.0609 32.8125 41.436V41.4829C32.8125 41.9859 32.6126 42.4684 32.2569 42.8241C31.9012 43.1799 31.4187 43.3797 30.9156 43.3797H30.9625H30.964Z" fill="url(#paint1_linear_203_141)"/>
<defs>
<linearGradient id="paint0_linear_203_141" x1="7.44869" y1="7.53573" x2="28.2091" y2="28.2491" gradientUnits="userSpaceOnUse">
<stop stop-color="#387EB8"/>
<stop offset="1" stop-color="#366994"/>
</linearGradient>
<linearGradient id="paint1_linear_203_141" x1="19.7304" y1="21.0291" x2="43.4495" y2="41.7362" gradientUnits="userSpaceOnUse">
<stop stop-color="#FFE052"/>
<stop offset="1" stop-color="#FFC331"/>
</linearGradient>
</defs>
</svg>
