<svg width="50" height="50" viewBox="0 0 50 50" fill="none" xmlns="http://www.w3.org/2000/svg">
<path d="M25 29.877C27.5144 29.877 29.5527 27.8387 29.5527 25.3243C29.5527 22.8099 27.5144 20.7716 25 20.7716C22.4856 20.7716 20.4473 22.8099 20.4473 25.3243C20.4473 27.8387 22.4856 29.877 25 29.877Z" fill="#61DAFB"/>
<path d="M42.2923 17.8163C41.4137 17.4968 40.4952 17.1773 39.5367 16.8978C39.7764 15.9393 39.976 14.9808 40.1358 14.0623C40.9744 8.79073 40.0559 5.07668 37.5 3.63898C36.7412 3.19968 35.9026 3 34.9441 3C32.1486 3 28.5943 5.07668 25 8.55112C21.4058 5.07668 17.8514 3 15.0559 3C14.0974 3 13.2588 3.19968 12.5 3.63898C9.94409 5.11661 9.02556 8.83067 9.86422 14.0623C10.024 14.9808 10.2236 15.9393 10.4633 16.8978C9.50479 17.1773 8.58626 17.4569 7.70767 17.8163C2.71566 19.7332 0 22.369 0 25.3243C0 28.2796 2.75559 30.9153 7.70767 32.8323C8.58626 33.1518 9.50479 33.4712 10.4633 33.7508C10.2236 34.7093 10.024 35.6677 9.86422 36.5863C9.02556 41.8578 9.94409 45.5719 12.5 47.0096C13.2588 47.4489 14.0974 47.6486 15.0559 47.6486C17.8914 47.6486 21.4457 45.5719 25 42.0974C28.5943 45.5719 32.1486 47.6486 34.9441 47.6486C35.9026 47.6486 36.7412 47.4489 37.5 47.0096C40.0559 45.5319 40.9744 41.8179 40.1358 36.5863C39.976 35.6677 39.7764 34.7093 39.5367 33.7508C40.4952 33.4712 41.4137 33.1917 42.2923 32.8323C47.2843 30.9153 50 28.2796 50 25.3243C50 22.369 47.2843 19.7332 42.2923 17.8163ZM36.3818 5.63578C38.0192 6.59425 38.5783 9.54952 37.8994 13.7428C37.7796 14.5815 37.5799 15.4601 37.3403 16.3786C35.2636 15.8994 33.0671 15.5799 30.7508 15.3802C29.393 13.4633 27.9952 11.746 26.5974 10.1885C29.5527 7.27316 32.5479 5.27636 34.984 5.27636C35.5032 5.27636 35.9824 5.39617 36.3818 5.63578ZM31.9089 29.3179C31.1901 30.5958 30.3514 31.8738 29.4728 33.1518C27.9952 33.2716 26.5176 33.3115 25 33.3115C23.4425 33.3115 21.9649 33.2716 20.5272 33.1518C19.6486 31.8738 18.8498 30.5958 18.131 29.3179C17.3722 28 16.6534 26.6422 16.0144 25.3243C16.6534 24.0064 17.3722 22.6486 18.131 21.3307C18.8498 20.0527 19.6885 18.7748 20.5671 17.4968C22.0447 17.377 23.5224 17.3371 25.0399 17.3371C26.5974 17.3371 28.0751 17.377 29.5128 17.4968C30.3914 18.7748 31.1901 20.0527 31.9089 21.3307C32.6677 22.6486 33.3866 24.0064 34.0256 25.3243C33.3466 26.6422 32.6677 27.9601 31.9089 29.3179ZM35.2236 28C35.8227 29.3978 36.3019 30.7556 36.7412 32.1134C35.3834 32.4329 33.9457 32.6725 32.4281 32.8722C32.9073 32.1134 33.4265 31.3147 33.8658 30.476C34.345 29.6374 34.7843 28.7987 35.2236 28ZM25 38.8227C24.0415 37.7843 23.123 36.6661 22.2444 35.508C23.1629 35.5479 24.0815 35.5879 25 35.5879C25.9185 35.5879 26.8371 35.5479 27.7556 35.508C26.877 36.6661 25.9585 37.7843 25 38.8227ZM17.5719 32.8323C16.0543 32.6326 14.6166 32.393 13.2588 32.0735C13.6981 30.7556 14.1773 29.3578 14.7764 27.9601C15.2157 28.7588 15.655 29.5974 16.1342 30.3962C16.6134 31.2748 17.0927 32.0335 17.5719 32.8323ZM14.7764 22.6486C14.1773 21.2508 13.6981 19.893 13.2588 18.5351C14.6166 18.2157 16.0543 17.976 17.5719 17.7764C17.0927 18.5351 16.5735 19.3339 16.1342 20.1725C15.655 21.0112 15.2157 21.8498 14.7764 22.6486ZM25 11.8259C25.9585 12.8642 26.877 13.9824 27.7556 15.1406C26.8371 15.1006 25.9185 15.0607 25 15.0607C24.0815 15.0607 23.1629 15.1006 22.2444 15.1406C23.123 13.9824 24.0415 12.8642 25 11.8259ZM33.8658 20.2125L32.4281 17.8163C33.9457 18.016 35.3834 18.2556 36.7412 18.5751C36.3019 19.893 35.8227 21.2907 35.2236 22.6885C34.7843 21.8498 34.345 21.0112 33.8658 20.2125ZM12.1006 13.7428C11.4217 9.54952 11.9808 6.59425 13.6182 5.63578C14.0176 5.39617 14.4968 5.27636 15.016 5.27636C17.4121 5.27636 20.4073 7.23323 23.4026 10.1885C22.0048 11.7061 20.607 13.4633 19.2492 15.3802C16.9329 15.5799 14.7364 15.9393 12.6597 16.3786C12.4201 15.4601 12.2604 14.5815 12.1006 13.7428ZM2.23642 25.3243C2.23642 23.4473 4.51278 21.4505 8.50639 19.9728C9.30511 19.6534 10.1837 19.3738 11.0623 19.1342C11.7013 21.131 12.5 23.2476 13.4585 25.3642C12.5 27.4808 11.6613 29.5575 11.0623 31.5543C5.55112 29.9569 2.23642 27.5607 2.23642 25.3243ZM13.6182 45.0128C11.9808 44.0543 11.4217 41.099 12.1006 36.9057C12.2204 36.0671 12.4201 35.1885 12.6597 34.27C14.7364 34.7492 16.9329 35.0687 19.2492 35.2684C20.607 37.1853 22.0048 38.9026 23.4026 40.4601C20.4473 43.3754 17.4521 45.3722 15.016 45.3722C14.4968 45.3722 14.0176 45.2524 13.6182 45.0128ZM37.8994 36.9057C38.5783 41.099 38.0192 44.0543 36.3818 45.0128C35.9824 45.2524 35.5032 45.3722 34.984 45.3722C32.5879 45.3722 29.5927 43.4153 26.5974 40.4601C27.9952 38.9425 29.393 37.1853 30.7508 35.2684C33.0671 35.0687 35.2636 34.7093 37.3403 34.27C37.5799 35.1885 37.7396 36.0671 37.8994 36.9057ZM41.4936 30.6757C40.6949 30.9952 39.8163 31.2748 38.9377 31.5144C38.2987 29.5176 37.5 27.401 36.5415 25.2843C37.5 23.1677 38.3387 21.0911 38.9377 19.0942C44.4489 20.6917 47.7636 23.0879 47.7636 25.3243C47.7636 27.2013 45.4473 29.1981 41.4936 30.6757Z" fill="#61DAFB"/>
</svg>
