<svg width="50" height="50" viewBox="0 0 50 50" fill="none" xmlns="http://www.w3.org/2000/svg">
<path d="M43.0386 27.5194C41.2905 27.5293 39.7769 27.9491 38.5073 28.5742C38.0386 27.6465 37.5698 26.8358 37.4918 26.2305C37.4039 25.5273 37.2965 25.0976 37.4039 24.2578C37.5112 23.4179 37.9995 22.2265 37.9995 22.1288C37.9897 22.0409 37.892 21.6112 36.8862 21.6015C35.8805 21.5917 35.0112 21.7968 34.9136 22.0605C34.8159 22.3241 34.6206 22.9296 34.4937 23.5546C34.3179 24.4726 32.482 27.7245 31.437 29.4335C31.0952 28.7694 30.8023 28.1835 30.7436 27.7146C30.6558 27.0116 30.5483 26.5818 30.6558 25.7421C30.7632 24.9021 31.2515 23.7108 31.2515 23.6132C31.2417 23.5253 31.1441 23.0956 30.1383 23.0858C29.1323 23.0761 28.2633 23.2812 28.1657 23.5448C28.068 23.8085 27.9606 24.4335 27.7457 25.039C27.5406 25.6444 25.0992 31.0741 24.4644 32.4901C24.1421 33.2128 23.859 33.7889 23.6538 34.1796C23.4488 34.5702 23.6441 34.2089 23.6245 34.2479C23.4488 34.58 23.3511 34.7655 23.3511 34.7655V34.7754C23.2144 35.0195 23.0679 35.2538 22.9994 35.2538C22.9506 35.2538 22.853 34.5995 23.019 33.7012C23.3803 31.8163 24.2592 28.8769 24.2495 28.7695C24.2495 28.7207 24.4155 28.203 23.683 27.9394C22.9702 27.6758 22.7163 28.1152 22.6577 28.1152C22.5991 28.1152 22.5502 28.2715 22.5502 28.2715C22.5502 28.2715 23.3412 24.961 21.0366 24.961C19.5912 24.961 17.5991 26.5333 16.6127 27.9688C15.9877 28.3106 14.6596 29.0332 13.2534 29.8048C12.7163 30.0977 12.1596 30.4102 11.6323 30.6934L11.525 30.5761C8.73199 27.5976 3.56598 25.4882 3.78082 21.4843C3.85895 20.0292 4.36676 16.1913 13.7028 11.5429C21.3493 7.73431 27.4723 8.77923 28.5366 11.1034C30.0503 14.4238 25.2652 20.5956 17.3161 21.4843C14.2887 21.8261 12.6968 20.6542 12.2965 20.2148C11.8766 19.7558 11.818 19.7362 11.6618 19.8241C11.4079 19.9608 11.5641 20.371 11.6618 20.6151C11.8961 21.2304 12.8727 22.3241 14.5329 22.871C15.9878 23.3495 19.5426 23.6132 23.8395 21.953C28.6539 20.0878 32.4137 14.912 31.3102 10.5859C30.1871 6.18158 22.8825 4.73627 15.9782 7.18744C11.8667 8.65228 7.41363 10.9374 4.21051 13.9355C0.40192 17.4902 -0.203548 20.5956 0.0503578 21.8847C0.939126 26.4843 7.27691 29.4823 9.81597 31.6991C9.68902 31.7674 9.57183 31.8357 9.46441 31.8944C8.19488 32.5193 3.3609 35.0487 2.14996 37.7244C0.782779 40.7517 2.36481 42.9296 3.41949 43.2225C6.68121 44.1307 10.021 42.4999 11.8277 39.8143C13.6245 37.1288 13.4097 33.6425 12.5796 32.0507L12.5502 31.9921L13.5463 31.4061C14.191 31.0253 14.8257 30.6737 15.3823 30.3709C15.0699 31.2205 14.8452 32.2264 14.7281 33.6912C14.5914 35.41 15.2945 37.6365 16.2222 38.5154C16.6324 38.8962 17.1206 38.906 17.4234 38.906C18.4976 38.906 18.9859 38.0173 19.523 36.9529C20.187 35.6541 20.773 34.1502 20.773 34.1502C20.773 34.1502 20.0406 38.2224 22.0425 38.2224C22.7749 38.2224 23.5074 37.2752 23.8394 36.7869V36.7967C23.8394 36.7967 23.8589 36.7674 23.898 36.699C23.939 36.6384 23.978 36.5766 24.0152 36.5136V36.494C24.3081 35.9862 24.9624 34.8241 25.939 32.9003C27.1987 30.4198 28.4097 27.3143 28.4097 27.3143C28.4097 27.3143 28.5269 28.0761 28.8882 29.3261C29.103 30.0683 29.5717 30.8788 29.933 31.6698C29.6401 32.08 29.4643 32.3144 29.4643 32.3144L29.474 32.3242C29.2398 32.6367 28.976 32.9688 28.7027 33.3008C27.7066 34.4922 26.5152 35.8497 26.3589 36.2403C26.1734 36.6992 26.2124 37.041 26.5738 37.3145C26.8374 37.5098 27.3062 37.5488 27.8042 37.5098C28.7027 37.4511 29.3277 37.2266 29.6402 37.0898C30.1284 36.914 30.6851 36.6504 31.2222 36.2597C32.1988 35.5372 32.7945 34.5118 32.7359 33.1446C32.7066 32.3927 32.4624 31.6505 32.1597 30.9473C32.2476 30.8204 32.3356 30.6933 32.4234 30.5567C33.9663 28.3008 35.1577 25.8204 35.1577 25.8204C35.1577 25.8204 35.2749 26.5821 35.6362 27.8321C35.8217 28.4669 36.1929 29.1603 36.5249 29.8439C35.0796 31.0256 34.1714 32.3928 33.8589 33.2912C33.2827 34.9513 33.732 35.7033 34.5816 35.8791C34.9623 35.9572 35.5093 35.7814 35.9194 35.6056C36.4272 35.4396 37.0424 35.1563 37.6089 34.7365C38.5855 34.0138 39.523 33.008 39.4741 31.6506C39.4448 31.0256 39.2788 30.4103 39.0542 29.8244C40.2847 29.3166 41.8764 29.0236 43.898 29.2678C48.2437 29.7756 49.103 32.4904 48.9371 33.6232C48.7711 34.7561 47.8629 35.381 47.5601 35.5763C47.2573 35.7619 47.1597 35.8303 47.189 35.967C47.228 36.1721 47.3647 36.1623 47.6284 36.1233C47.9897 36.0646 49.9136 35.1956 49.9917 33.1058C50.1089 30.4199 47.5601 27.4902 43.0386 27.5194V27.5194ZM9.523 38.8182C8.08746 40.3905 6.06597 40.9862 5.2066 40.4784C4.27887 39.9413 4.6401 37.6268 6.40777 35.9569C7.48199 34.9413 8.87847 34.0038 9.79644 33.4276C10.0015 33.3007 10.314 33.1152 10.6851 32.8905C10.7437 32.8515 10.7828 32.8319 10.7828 32.8319C10.8511 32.7929 10.9292 32.744 11.0074 32.6952C11.6617 35.078 11.0367 37.1678 9.523 38.8182V38.8182ZM20.021 31.6796C19.523 32.9003 18.4683 36.035 17.8335 35.8593C17.2866 35.7128 16.9546 33.3397 17.726 30.996C18.1166 29.8142 18.9467 28.4081 19.435 27.8611C20.2261 26.9822 21.0854 26.6893 21.3003 27.0506C21.5542 27.5194 20.3335 30.9179 20.021 31.6796ZM28.6831 35.8202C28.4683 35.9277 28.273 36.0057 28.1851 35.9472C28.1167 35.9082 28.2729 35.7617 28.2729 35.7617C28.2729 35.7617 29.3569 34.5996 29.7865 34.0625C30.0307 33.7501 30.3237 33.3888 30.6362 32.9785V33.0957C30.6363 34.5018 29.2886 35.4393 28.6831 35.8202ZM35.3627 34.2968C35.2065 34.1796 35.2261 33.8182 35.7533 32.6854C35.9585 32.2362 36.4272 31.4843 37.2377 30.7714C37.3354 31.0643 37.3941 31.3474 37.3842 31.6112C37.3745 33.369 36.1245 34.0233 35.3627 34.2968Z" fill="#CF649A"/>
</svg>
