<svg width="50" height="50" viewBox="0 0 50 50" fill="none" xmlns="http://www.w3.org/2000/svg">
<path d="M49.9291 24.9381C49.9291 38.7104 38.7641 49.8756 24.991 49.8756C11.2176 49.8756 0.0527344 38.7104 0.0527344 24.9381C0.0527344 11.165 11.218 0 24.991 0C38.7643 0 49.9291 11.165 49.9291 24.9381Z" fill="#DD4814"/>
<path d="M8.03381 21.608C6.19416 21.608 4.70374 23.0985 4.70374 24.9381C4.70374 26.7768 6.19416 28.2674 8.03381 28.2674C9.87268 28.2674 11.3631 26.7768 11.3631 24.9381C11.3631 23.0985 9.87268 21.608 8.03381 21.608ZM31.8063 36.7404C30.2139 37.6604 29.6676 39.6955 30.5875 41.2871C31.5065 42.8797 33.5416 43.4256 35.1342 42.5059C36.7266 41.5869 37.2727 39.5518 36.353 37.959C35.434 36.3676 33.3977 35.8217 31.8063 36.7404ZM15.266 24.9381C15.266 21.6479 16.9004 18.7408 19.401 16.9807L16.9668 12.9037C14.0539 14.851 11.8864 17.8264 10.9856 21.3113C12.0367 22.1688 12.7094 23.4744 12.7094 24.9379C12.7094 26.4006 12.0367 27.7063 10.9856 28.5639C11.8852 32.0496 14.0528 35.0254 16.9668 36.9727L19.401 32.8945C16.9004 31.1354 15.266 28.2285 15.266 24.9381V24.9381ZM24.991 15.2121C30.0717 15.2121 34.2401 19.1074 34.6776 24.0754L39.4217 24.0055C39.1885 20.3379 37.5862 17.0453 35.1244 14.6242C33.8584 15.1026 32.3959 15.0293 31.1322 14.3008C29.866 13.5701 29.0721 12.3375 28.8551 10.9996C27.5965 10.6513 26.2967 10.4746 24.9908 10.4742C22.7673 10.472 20.5735 10.9842 18.5809 11.9709L20.8944 16.1168C22.1774 15.5196 23.5758 15.2108 24.991 15.2121V15.2121ZM24.991 34.6633C23.5759 34.6646 22.1776 34.3558 20.8946 33.7586L18.5811 37.9041C20.5734 38.8919 22.7675 39.4047 24.9912 39.4024C26.2971 39.4021 27.597 39.2249 28.8553 38.8756C29.0723 37.5377 29.8664 36.3063 31.1322 35.5744C32.3971 34.8445 33.8586 34.7727 35.1244 35.251C37.5863 32.8299 39.1885 29.5373 39.4221 25.8697L34.6766 25.7998C34.2401 30.7692 30.0719 34.6631 24.991 34.6631V34.6633ZM31.8051 13.1338C33.3977 14.0533 35.433 13.5088 36.3518 11.9162C37.2717 10.3236 36.7268 8.2883 35.1342 7.36838C33.5416 6.44963 31.5065 6.99533 30.5864 8.58791C29.6678 10.1797 30.2137 12.2149 31.8051 13.1338Z" fill="white"/>
</svg>
