<svg width="50" height="50" viewBox="0 0 50 50" fill="none" xmlns="http://www.w3.org/2000/svg">
<path d="M1.4289 17.8736C1.4289 17.8736 0.245294 17.0048 1.66562 15.8447L4.97478 12.8314C4.97478 12.8314 5.92166 11.817 6.92279 12.7009L37.4598 36.2444V47.5341C37.4598 47.5341 37.445 49.3069 35.2109 49.111L1.4289 17.8736Z" fill="#2489CA"/>
<path d="M9.29991 25.1508L1.42892 32.4378C1.42892 32.4378 0.620126 33.0505 1.42892 34.1453L5.08331 37.5302C5.08331 37.5302 5.95129 38.4793 7.23353 37.3996L15.578 30.9563L9.29991 25.1508Z" fill="#1070B3"/>
<path d="M23.1186 25.2109L37.5537 13.9865L37.46 2.75709C37.46 2.75709 36.8435 0.306305 34.787 1.58192L15.578 19.3853L23.1186 25.2109Z" fill="#0877B9"/>
<path d="M35.2111 49.1262C36.0495 50.0001 37.0654 49.7138 37.0654 49.7138L48.3146 44.069C49.7546 43.0696 49.5524 41.8291 49.5524 41.8291V8.12076C49.5524 6.63924 48.0631 6.12699 48.0631 6.12699L38.3131 1.34093C36.1827 2.9137e-05 34.787 1.58199 34.787 1.58199C34.787 1.58199 36.5821 0.266201 37.46 2.75716V47.3283C37.46 47.6346 37.3958 47.936 37.2676 48.2072C37.0112 48.7345 36.4539 49.2266 35.1174 49.0207L35.2111 49.1262Z" fill="#3C99D4"/>
</svg>
