<svg width="50" height="50" viewBox="0 0 50 50" fill="none" xmlns="http://www.w3.org/2000/svg">
<path d="M16.931 14.5989C15.9981 17.3041 15.4384 20.1959 15.2519 23.2276H23.2743V14.5989H16.931ZM18.3769 11.1007H23.2743V4.19776C21.3153 6.15672 19.6828 8.48881 18.3769 11.1007ZM14.5522 11.1007C15.5784 8.72202 16.8843 6.48321 18.4235 4.47761C14.459 5.73694 11.0541 8.11567 8.58209 11.1007H14.5522ZM43.8433 14.5989H36.7537C37.5933 17.3041 38.1063 20.1959 38.2463 23.2276H46.4552C46.222 20.1026 45.2892 17.2108 43.8433 14.5989ZM34.7481 23.2276C34.6082 20.1959 34.0019 17.3041 33.069 14.5989H26.7257V23.2276H34.7481ZM31.6231 11.1007C30.3638 8.48881 28.6847 6.15672 26.7257 4.19776V11.1007H31.6231ZM35.4478 11.1007H41.4179C38.8993 8.16231 35.4944 5.73694 31.5765 4.47761C33.1157 6.48321 34.4216 8.72202 35.4478 11.1007ZM6.15672 35.3545H13.2463C12.4067 32.6493 11.8937 29.7575 11.7537 26.7257H3.54478C3.82463 29.8507 4.71082 32.7892 6.15672 35.3545ZM15.2519 26.7257C15.3918 29.7575 15.9981 32.6493 16.931 35.3545H23.2743V26.7257H15.2519ZM18.3769 38.8526C19.6828 41.4646 21.3619 43.7966 23.2743 45.7556V38.8526H18.3769ZM14.5522 38.8526H8.53545C11.0541 41.791 14.459 44.2164 18.3769 45.4757C16.8843 43.5168 15.5784 41.278 14.5522 38.8526ZM36.7537 35.3545H43.8433C45.2892 32.7425 46.1754 29.8507 46.4552 26.7257H38.2463C38.1063 29.7575 37.5933 32.6493 36.7537 35.3545ZM33.069 35.3545C34.0019 32.6493 34.5616 29.7575 34.7481 26.7257H26.7257V35.3545H33.069ZM31.6231 38.8526H26.7257V45.7556C28.6847 43.8433 30.3638 41.5112 31.6231 38.8526ZM35.4478 38.8526C34.4216 41.2313 33.1157 43.4702 31.5765 45.4757C35.541 44.2164 38.9459 41.8377 41.4179 38.8526H35.4478ZM13.2463 14.5989H6.15672C4.71082 17.2108 3.82463 20.1493 3.54478 23.2276H11.7537C11.9403 20.2425 12.4534 17.3041 13.2463 14.5989ZM25 50C11.194 50 0 38.806 0 25C0 11.194 11.194 0 25 0C38.806 0 50 11.194 50 25C50 38.806 38.806 50 25 50Z" fill="#0085FF"/>
</svg>
